<svg xmlns="http://www.w3.org/2000/svg" width="700" height="500"><rect width="700" height="500" x="0" y="0" fill="#FFFFFF" id="background"/><g transform="translate(20,20)" id="viz"><g><rect x="0" y="0" height="4.1842682176694135" width="5" fill="black"><title>Coal reserves: 63.96</title></rect><rect x="131" y="224.43251481545167" height="6.237150279434076" width="5" fill="black"><title>Coal: 95.34</title></rect><rect x="0" y="12.712839184755099" height="2.052227860980153" width="5" fill="black"><title>Coal imports: 31.37</title></rect><rect x="0" y="338.4742841336585" height="7.045742449077636" width="5" fill="black"><title>Oil reserves: 107.7</title></rect><rect x="131" y="252.29527250621993" height="57.574902642378504" width="5" fill="black"><title>Oil: 880.08</title></rect><rect x="0" y="267.3180083251632" height="50.52850599251644" width="5" fill="black"><title>Oil imports: 772.37</title></rect><rect x="0" y="215.33905409411867" height="5.379493050953016" width="5" fill="black"><title>Gas reserves: 82.23</title></rect><rect x="131" y="76.60933869052519" height="138.46486704359384" width="5" fill="black"><title>Natural Gas: 2116.55</title></rect><rect x="0" y="73.72510913439218" height="133.08537399264077" width="5" fill="black"><title>Gas imports: 2034.32</title></rect><rect x="0" y="257.63411877264843" height="1.155318585429086" width="5" fill="black"><title>UK land based bioenergy: 17.66</title></rect><rect x="131" y="217.22606584942113" height="6.242383885710069" width="5" fill="black"><title>Bio-conversion: 95.42000000000002</title></rect><rect x="0" y="246.65752846995935" height="2.448019335603391" width="5" fill="black"><title>Agricultural 'waste': 37.42</title></rect><rect x="0" y="326.37508528476536" height="3.570627881807468" width="5" fill="black"><title>Other waste: 54.580000000000005</title></rect><rect x="262" y="316.6283204682533" height="9.14376436497281" width="5" fill="black"><title>Solid: 139.77</title></rect><rect x="262" y="334.3006558003118" height="58.08125404958241" width="5" fill="black"><title>Liquid: 887.82</title></rect><rect x="262" y="91.11159426498234" height="141.05484794943396" width="5" fill="black"><title>Gas: 2156.1400000000003</title></rect><rect x="655" y="269.34666959444854" height="44.22397303227871" width="5" fill="black"><title>Losses: 676</title></rect><rect x="393" y="82.21262647619223" height="77.56269921124259" width="5" fill="black"><title>Thermal generation: 1185.6100000000001</title></rect><rect x="524" y="231.91043963495034" height="1.0558800661848693" width="5" fill="black"><title>District heating: 16.14</title></rect><rect x="524" y="235.36836715726437" height="38.03719621325112" width="5" fill="black"><title>Electricity grid: 581.4300000000001</title></rect><rect x="0" y="229.24711811215735" height="0.005233606275993452" width="5" fill="black"><title>Wind: 0.08</title></rect><rect x="0" y="237.78092268551904" height="0.3480348173546304" width="5" fill="black"><title>Hydro: 5.32</title></rect><rect x="655" y="205.2201907557468" height="55.59790787161606" width="5" fill="black"><title>Industry: 849.8599999999999</title></rect><rect x="655" y="322.0992135938129" height="37.85140319045286" width="5" fill="black"><title>Heating and cooling - homes: 578.59</title></rect><rect x="655" y="368.47918775135145" height="11.310477363240636" width="5" fill="black"><title>Heating and cooling - commercial: 172.89</title></rect><rect x="655" y="388.31823608167775" height="7.289759341696538" width="5" fill="black"><title>Lighting &amp; appliances - homes: 111.43</title></rect><rect x="655" y="413.39587963383343" height="6.6322875532728744" width="5" fill="black"><title>Lighting &amp; appliances - commercial: 101.38</title></rect><rect x="655" y="404.13656639046" height="0.7307422762877422" width="5" fill="black"><title>Agriculture: 11.169999999999998</title></rect><rect x="655" y="428.55673815419203" height="21.971333347471614" width="5" fill="black"><title>Road transport: 335.84999999999997</title></rect><rect x="655" y="459.0566424687493" height="0.9433575312506832" width="5" fill="black"><title>Rail transport: 14.420000000000002</title></rect><rect x="393" y="307.0553312790584" height="0.9669087594926964" width="5" fill="black"><title>Domestic aviation: 14.78</title></rect><rect x="393" y="316.5508110056368" height="1.4712975643431037" width="5" fill="black"><title>National navigation: 22.49</title></rect><rect x="393" y="250.88376805621377" height="12.336918394122932" width="5" fill="black"><title>International aviation: 188.58</title></rect><rect x="393" y="310.2455485359212" height="8.471900159290044" width="5" fill="black"><title>International shipping: 129.5</title></rect></g><g class="links" fill="none" stroke-opacity="1"><path d="M5,2.0921341088347067C68,2.0921341088347067,68,226.52464892428642,131,226.52464892428642" stroke="rgb(240, 112, 74)" style="stroke-width: 4.18427; mix-blend-mode: multiply;"><title>Coal reserves → Coal: 63.96</title></path><path d="M5,13.738953115245176C68,13.738953115245176,68,229.64289696361115,131,229.64289696361115" stroke="rgb(228, 86, 73)" style="stroke-width: 2.05223; mix-blend-mode: multiply;"><title>Coal imports → Coal: 31.37</title></path><path d="M5,341.99715535819723C68,341.99715535819723,68,306.34664972327516,131,306.34664972327516" stroke="rgb(137, 207, 165)" style="stroke-width: 7.04574; mix-blend-mode: multiply;"><title>Oil reserves → Oil: 107.7</title></path><path d="M5,292.58226132142136C68,292.58226132142136,68,277.5595255024781,131,277.5595255024781" stroke="rgb(169, 221, 162)" style="stroke-width: 50.5285; mix-blend-mode: multiply;"><title>Oil imports → Oil: 772.37</title></path><path d="M5,218.02880061959516C68,218.02880061959516,68,212.38445920864254,131,212.38445920864254" stroke="rgb(254, 238, 163)" style="stroke-width: 5.37949; mix-blend-mode: multiply;"><title>Gas reserves → Natural Gas: 82.23</title></path><path d="M5,140.2677961307126C68,140.2677961307126,68,143.15202568684566,131,143.15202568684566" stroke="rgb(254, 221, 141)" style="stroke-width: 133.085; mix-blend-mode: multiply;"><title>Gas imports → Natural Gas: 2034.32</title></path><path d="M5,258.211778065363C68,258.211778065363,68,220.25174447773904,131,220.25174447773904" stroke="rgb(74, 108, 174)" style="stroke-width: 1.15532; mix-blend-mode: multiply;"><title>UK land based bioenergy → Bio-conversion: 17.66</title></path><path d="M5,247.88153813776105C68,247.88153813776105,68,218.4500755172228,131,218.4500755172228" stroke="rgb(158, 1, 66)" style="stroke-width: 2.44802; mix-blend-mode: multiply;"><title>Agricultural 'waste' → Bio-conversion: 37.42</title></path><path d="M5,327.6946082671042C68,327.6946082671042,68,222.1489267527924,131,222.1489267527924" stroke="rgb(105, 189, 169)" style="stroke-width: 2.63905; mix-blend-mode: multiply;"><title>Other waste → Bio-conversion: 40.34</title></path><path d="M5,329.4799222080079C133.5,329.4799222080079,133.5,325.30629387466126,262,325.30629387466126" stroke="rgb(105, 189, 169)" style="stroke-width: 1; mix-blend-mode: multiply;"><title>Other waste → Solid: 14.24</title></path><path d="M136,227.55108995516872C199,227.55108995516872,199,321.7219277763794,262,321.7219277763794" stroke="rgb(209, 60, 75)" style="stroke-width: 6.23715; mix-blend-mode: multiply;"><title>Coal → Solid: 95.34</title></path><path d="M136,281.08272382740915C199,281.08272382740915,199,363.594458528705,262,363.594458528705" stroke="rgb(200, 233, 159)" style="stroke-width: 57.5749; mix-blend-mode: multiply;"><title>Oil → Liquid: 880.08</title></path><path d="M136,145.84177221232216C199,145.84177221232216,199,160.34402778677932,262,160.34402778677932" stroke="rgb(224, 243, 161)" style="stroke-width: 138.465; mix-blend-mode: multiply;"><title>Natural Gas → Gas: 2116.55</title></path><path d="M136,221.97458224372278C199,221.97458224372278,199,317.6158365524578,262,317.6158365524578" stroke="rgb(185, 31, 72)" style="stroke-width: 1.97503; mix-blend-mode: multiply;"><title>Bio-conversion → Solid: 30.19</title></path><path d="M136,223.21527403152928C199,223.21527403152928,199,334.5538315039137,262,334.5538315039137" stroke="rgb(185, 31, 72)" style="stroke-width: 1; mix-blend-mode: multiply;"><title>Bio-conversion → Liquid: 7.74</title></path><path d="M136,218.5210563023412C199,218.5210563023412,199,230.8714517614964,262,230.8714517614964" stroke="rgb(185, 31, 72)" style="stroke-width: 2.58998; mix-blend-mode: multiply;"><title>Bio-conversion → Gas: 39.59</title></path><path d="M136,220.40155645738977C395.5,220.40155645738977,395.5,312.9851329245987,655,312.9851329245987" stroke="rgb(185, 31, 72)" style="stroke-width: 1.17102; mix-blend-mode: multiply;"><title>Bio-conversion → Losses: 17.9</title></path><path d="M267,317.70186395561973C330,317.70186395561973,330,158.70178220006832,393,158.70178220006832" stroke="rgb(78, 164, 176)" style="stroke-width: 2.14709; mix-blend-mode: multiply;"><title>Solid → Thermal generation: 32.82</title></path><path d="M267,128.81940038323717C330,128.81940038323717,330,119.92043259444709,393,119.92043259444709" stroke="rgb(253, 198, 118)" style="stroke-width: 75.4156; mix-blend-mode: multiply;"><title>Gas → Thermal generation: 1152.79</title></path><path d="M398,121.56345786472176C461,121.56345786472176,461,232.43837966804278,524,232.43837966804278" stroke="rgb(66, 136, 181)" style="stroke-width: 1.05588; mix-blend-mode: multiply;"><title>Thermal generation → District heating: 16.14</title></path><path d="M398,140.9333617926245C461,140.9333617926245,461,254.21033105207468,524,254.21033105207468" stroke="rgb(66, 136, 181)" style="stroke-width: 37.6839; mix-blend-mode: multiply;"><title>Thermal generation → Electricity grid: 576.03</title></path><path d="M398,101.62407215391077C526.5,101.62407215391077,526.5,288.75811527216706,655,288.75811527216706" stroke="rgb(66, 136, 181)" style="stroke-width: 38.8229; mix-blend-mode: multiply;"><title>Thermal generation → Losses: 593.44</title></path><path d="M5,229.24973491529536C264.5,229.24973491529536,264.5,273.0549117500229,524,273.0549117500229" stroke="rgb(94, 79, 162)" style="stroke-width: 1; mix-blend-mode: multiply;"><title>Wind → Electricity grid: 0.08</title></path><path d="M5,237.95494009419636C264.5,237.95494009419636,264.5,273.2315459618382,524,273.2315459618382" stroke="rgb(251, 248, 176)" style="stroke-width: 1; mix-blend-mode: multiply;"><title>Hydro → Electricity grid: 5.32</title></path><path d="M529,251.598761520346C592,251.598761520346,592,309.49595304046176,655,309.49595304046176" stroke="rgb(252, 172, 99)" style="stroke-width: 2.65278; mix-blend-mode: multiply;"><title>Electricity grid → Losses: 40.55</title></path><path d="M529,232.43837966804278C592,232.43837966804278,592,225.4127521701597,655,225.4127521701597" stroke="rgb(248, 142, 83)" style="stroke-width: 1.05588; mix-blend-mode: multiply;"><title>District heating → Industry: 16.14</title></path><path d="M529,254.90901748992184C592,254.90901748992184,592,324.08307747281265,655,324.08307747281265" stroke="rgb(252, 172, 99)" style="stroke-width: 3.96773; mix-blend-mode: multiply;"><title>Electricity grid → Heating and cooling - homes: 60.65</title></path><path d="M267,204.7109436904715C461,204.7109436904715,461,343.0087790680392,655,343.0087790680392" stroke="rgb(253, 198, 118)" style="stroke-width: 33.8837; mix-blend-mode: multiply;"><title>Gas → Heating and cooling - homes: 517.94</title></path><path d="M529,257.92030370098075C592,257.92030370098075,592,369.5066100834105,655,369.5066100834105" stroke="rgb(252, 172, 99)" style="stroke-width: 2.05484; mix-blend-mode: multiply;"><title>Electricity grid → Heating and cooling - commercial: 31.41</title></path><path d="M267,226.28059775625943C461,226.28059775625943,461,375.1618487650308,655,375.1618487650308" stroke="rgb(253, 198, 118)" style="stroke-width: 9.25563; mix-blend-mode: multiply;"><title>Gas → Heating and cooling - commercial: 141.48</title></path><path d="M529,262.32994408891085C592,262.32994408891085,592,391.70045413754883,655,391.70045413754883" stroke="rgb(252, 172, 99)" style="stroke-width: 6.76444; mix-blend-mode: multiply;"><title>Electricity grid → Lighting &amp; appliances - homes: 103.4</title></path><path d="M267,231.1710757207979C461,231.1710757207979,461,395.345333808397,655,395.345333808397" stroke="rgb(253, 198, 118)" style="stroke-width: 1; mix-blend-mode: multiply;"><title>Gas → Lighting &amp; appliances - homes: 8.03</title></path><path d="M529,269.0247078171035C592,269.0247078171035,592,416.41599755548305,655,416.41599755548305" stroke="rgb(252, 172, 99)" style="stroke-width: 6.04024; mix-blend-mode: multiply;"><title>Electricity grid → Lighting &amp; appliances - commercial: 92.33</title></path><path d="M267,231.86845375707614C461,231.86845375707614,461,419.7321413321195,655,419.7321413321195" stroke="rgb(253, 198, 118)" style="stroke-width: 1; mix-blend-mode: multiply;"><title>Gas → Lighting &amp; appliances - commercial: 9.05</title></path><path d="M529,242.8203682935171C592,242.8203682935171,592,233.39269333950492,655,233.39269333950492" stroke="rgb(252, 172, 99)" style="stroke-width: 14.904; mix-blend-mode: multiply;"><title>Electricity grid → Industry: 227.82</title></path><path d="M267,322.24430710280365C461,322.24430710280365,461,244.31359413557513,655,244.31359413557513" stroke="rgb(78, 164, 176)" style="stroke-width: 6.9378; mix-blend-mode: multiply;"><title>Solid → Industry: 106.05</title></path><path d="M267,364.0654830935456C461,364.0654830935456,461,254.30029621137757,655,254.30029621137757" stroke="rgb(241, 249, 171)" style="stroke-width: 13.0356; mix-blend-mode: multiply;"><title>Liquid → Industry: 199.26</title></path><path d="M267,176.3595171921523C461,176.3595171921523,461,215.05250144640704,655,215.05250144640704" stroke="rgb(253, 198, 118)" style="stroke-width: 19.6646; mix-blend-mode: multiply;"><title>Gas → Industry: 300.59</title></path><path d="M529,265.8583760201178C592,265.8583760201178,592,404.282780265796,655,404.282780265796" stroke="rgb(252, 172, 99)" style="stroke-width: 1; mix-blend-mode: multiply;"><title>Electricity grid → Agriculture: 4.47</title></path><path d="M267,325.7423186975313C461,325.7423186975313,461,404.59679664235654,655,404.59679664235654" stroke="rgb(78, 164, 176)" style="stroke-width: 1; mix-blend-mode: multiply;"><title>Solid → Agriculture: 0.89</title></path><path d="M267,370.7039855542712C461,370.7039855542712,461,404.74660862200733,655,404.74660862200733" stroke="rgb(241, 249, 171)" style="stroke-width: 1; mix-blend-mode: multiply;"><title>Liquid → Agriculture: 3.69</title></path><path d="M267,231.5030826189322C461,231.5030826189322,461,404.4983394242891,655,404.4983394242891" stroke="rgb(253, 198, 118)" style="stroke-width: 1; mix-blend-mode: multiply;"><title>Gas → Agriculture: 2.12</title></path><path d="M529,272.49753268162794C592,272.49753268162794,592,429.0094450970669,655,429.0094450970669" stroke="rgb(252, 172, 99)" style="stroke-width: 1; mix-blend-mode: multiply;"><title>Electricity grid → Road transport: 13.84</title></path><path d="M267,381.35764532987264C461,381.35764532987264,461,439.99511177080257,655,439.99511177080257" stroke="rgb(241, 249, 171)" style="stroke-width: 21.0659; mix-blend-mode: multiply;"><title>Liquid → Road transport: 322.01</title></path><path d="M529,273.1772472967246C592,273.1772472967246,592,459.28365014097125,655,459.28365014097125" stroke="rgb(252, 172, 99)" style="stroke-width: 1; mix-blend-mode: multiply;"><title>Electricity grid → Rail transport: 6.94</title></path><path d="M267,392.135276154137C461,392.135276154137,461,459.7553289065966,655,459.7553289065966" stroke="rgb(241, 249, 171)" style="stroke-width: 1; mix-blend-mode: multiply;"><title>Liquid → Rail transport: 7.48</title></path><path d="M267,347.121028574181C330,347.121028574181,330,307.5387856588047,393,307.5387856588047" stroke="rgb(241, 249, 171)" style="stroke-width: 1; mix-blend-mode: multiply;"><title>Liquid → Domestic aviation: 14.78</title></path><path d="M267,356.812031895389C330,356.812031895389,330,317.2864597878083,393,317.2864597878083" stroke="rgb(241, 249, 171)" style="stroke-width: 1.4713; mix-blend-mode: multiply;"><title>Liquid → National navigation: 22.49</title></path><path d="M267,340.46911499737325C330,340.46911499737325,330,257.05222725327525,393,257.05222725327525" stroke="rgb(241, 249, 171)" style="stroke-width: 12.3369; mix-blend-mode: multiply;"><title>Liquid → International aviation: 188.58</title></path><path d="M267,351.8404330335724C330,351.8404330335724,330,314.48149861556624,393,314.48149861556624" stroke="rgb(241, 249, 171)" style="stroke-width: 8.4719; mix-blend-mode: multiply;"><title>Liquid → International shipping: 129.5</title></path><path d="M267,186.9804669285287C461,186.9804669285287,461,311.610984176754,655,311.610984176754" stroke="rgb(253, 198, 118)" style="stroke-width: 1.57728; mix-blend-mode: multiply;"><title>Gas → Losses: 24.11</title></path></g><g><text x="9" y="2.0921341088347067" text-anchor="start"><tspan alignment-baseline="middle" style="font-family: Arial, sans-serif; font-size: 10px; fill: black; font-weight: bold;">Coal reserves</tspan></text><text x="140" y="227.55108995516872" text-anchor="start"><tspan alignment-baseline="middle" style="font-family: Arial, sans-serif; font-size: 10px; fill: black; font-weight: bold;">Coal</tspan></text><text x="9" y="13.738953115245176" text-anchor="start"><tspan alignment-baseline="middle" style="font-family: Arial, sans-serif; font-size: 10px; fill: black; font-weight: bold;">Coal imports</tspan></text><text x="9" y="341.99715535819735" text-anchor="start"><tspan alignment-baseline="middle" style="font-family: Arial, sans-serif; font-size: 10px; fill: black; font-weight: bold;">Oil reserves</tspan></text><text x="140" y="281.08272382740915" text-anchor="start"><tspan alignment-baseline="middle" style="font-family: Arial, sans-serif; font-size: 10px; fill: black; font-weight: bold;">Oil</tspan></text><text x="9" y="292.5822613214214" text-anchor="start"><tspan alignment-baseline="middle" style="font-family: Arial, sans-serif; font-size: 10px; fill: black; font-weight: bold;">Oil imports</tspan></text><text x="9" y="218.0288006195952" text-anchor="start"><tspan alignment-baseline="middle" style="font-family: Arial, sans-serif; font-size: 10px; fill: black; font-weight: bold;">Gas reserves</tspan></text><text x="140" y="145.8417722123221" text-anchor="start"><tspan alignment-baseline="middle" style="font-family: Arial, sans-serif; font-size: 10px; fill: black; font-weight: bold;">Natural Gas</tspan></text><text x="9" y="140.26779613071255" text-anchor="start"><tspan alignment-baseline="middle" style="font-family: Arial, sans-serif; font-size: 10px; fill: black; font-weight: bold;">Gas imports</tspan></text><text x="9" y="258.211778065363" text-anchor="start"><tspan alignment-baseline="middle" style="font-family: Arial, sans-serif; font-size: 10px; fill: black; font-weight: bold;">UK land based bioenergy</tspan></text><text x="140" y="220.34725779227617" text-anchor="start"><tspan alignment-baseline="middle" style="font-family: Arial, sans-serif; font-size: 10px; fill: black; font-weight: bold;">Bio-conversion</tspan></text><text x="9" y="247.88153813776103" text-anchor="start"><tspan alignment-baseline="middle" style="font-family: Arial, sans-serif; font-size: 10px; fill: black; font-weight: bold;">Agricultural 'waste'</tspan></text><text x="9" y="328.1603992256691" text-anchor="start"><tspan alignment-baseline="middle" style="font-family: Arial, sans-serif; font-size: 10px; fill: black; font-weight: bold;">Other waste</tspan></text><text x="271" y="321.2002026507397" text-anchor="start"><tspan alignment-baseline="middle" style="font-family: Arial, sans-serif; font-size: 10px; fill: black; font-weight: bold;">Solid</tspan></text><text x="271" y="363.341282825103" text-anchor="start"><tspan alignment-baseline="middle" style="font-family: Arial, sans-serif; font-size: 10px; fill: black; font-weight: bold;">Liquid</tspan></text><text x="271" y="161.63901823969934" text-anchor="start"><tspan alignment-baseline="middle" style="font-family: Arial, sans-serif; font-size: 10px; fill: black; font-weight: bold;">Gas</tspan></text><text x="651" y="291.45865611058787" text-anchor="end"><tspan alignment-baseline="middle" style="font-family: Arial, sans-serif; font-size: 10px; fill: black; font-weight: bold;">Losses</tspan></text><text x="389" y="120.99397608181351" text-anchor="end"><tspan alignment-baseline="middle" style="font-family: Arial, sans-serif; font-size: 10px; fill: black; font-weight: bold;">Thermal generation</tspan></text><text x="520" y="232.43837966804278" text-anchor="end"><tspan alignment-baseline="middle" style="font-family: Arial, sans-serif; font-size: 10px; fill: black; font-weight: bold;">District heating</tspan></text><text x="520" y="254.38696526388992" text-anchor="end"><tspan alignment-baseline="middle" style="font-family: Arial, sans-serif; font-size: 10px; fill: black; font-weight: bold;">Electricity grid</tspan></text><text x="9" y="229.24973491529533" text-anchor="start"><tspan alignment-baseline="middle" style="font-family: Arial, sans-serif; font-size: 10px; fill: black; font-weight: bold;">Wind</tspan></text><text x="9" y="237.95494009419636" text-anchor="start"><tspan alignment-baseline="middle" style="font-family: Arial, sans-serif; font-size: 10px; fill: black; font-weight: bold;">Hydro</tspan></text><text x="651" y="233.01914469155486" text-anchor="end"><tspan alignment-baseline="middle" style="font-family: Arial, sans-serif; font-size: 10px; fill: black; font-weight: bold;">Industry</tspan></text><text x="651" y="341.02491518903935" text-anchor="end"><tspan alignment-baseline="middle" style="font-family: Arial, sans-serif; font-size: 10px; fill: black; font-weight: bold;">Heating and cooling - homes</tspan></text><text x="651" y="374.13442643297174" text-anchor="end"><tspan alignment-baseline="middle" style="font-family: Arial, sans-serif; font-size: 10px; fill: black; font-weight: bold;">Heating and cooling - commercial</tspan></text><text x="651" y="391.96311575252605" text-anchor="end"><tspan alignment-baseline="middle" style="font-family: Arial, sans-serif; font-size: 10px; fill: black; font-weight: bold;">Lighting &amp; appliances - homes</tspan></text><text x="651" y="416.7120234104699" text-anchor="end"><tspan alignment-baseline="middle" style="font-family: Arial, sans-serif; font-size: 10px; fill: black; font-weight: bold;">Lighting &amp; appliances - commercial</tspan></text><text x="651" y="404.5019375286039" text-anchor="end"><tspan alignment-baseline="middle" style="font-family: Arial, sans-serif; font-size: 10px; fill: black; font-weight: bold;">Agriculture</tspan></text><text x="651" y="439.54240482792784" text-anchor="end"><tspan alignment-baseline="middle" style="font-family: Arial, sans-serif; font-size: 10px; fill: black; font-weight: bold;">Road transport</tspan></text><text x="651" y="459.52832123437463" text-anchor="end"><tspan alignment-baseline="middle" style="font-family: Arial, sans-serif; font-size: 10px; fill: black; font-weight: bold;">Rail transport</tspan></text><text x="389" y="307.5387856588047" text-anchor="end"><tspan alignment-baseline="middle" style="font-family: Arial, sans-serif; font-size: 10px; fill: black; font-weight: bold;">Domestic aviation</tspan></text><text x="389" y="317.2864597878083" text-anchor="end"><tspan alignment-baseline="middle" style="font-family: Arial, sans-serif; font-size: 10px; fill: black; font-weight: bold;">National navigation</tspan></text><text x="389" y="257.05222725327525" text-anchor="end"><tspan alignment-baseline="middle" style="font-family: Arial, sans-serif; font-size: 10px; fill: black; font-weight: bold;">International aviation</tspan></text><text x="389" y="314.48149861556624" text-anchor="end"><tspan alignment-baseline="middle" style="font-family: Arial, sans-serif; font-size: 10px; fill: black; font-weight: bold;">International shipping</tspan></text></g></g></svg>