<?xml version="1.0" encoding="UTF-8" standalone="no"?>
<svg
   width="700"
   height="500"
   version="1.1"
   id="svg24"
   sodipodi:docname="bumpchart_revenues.svg"
   inkscape:version="1.4.2 (f4327f4, 2025-05-13)"
   xmlns:inkscape="http://www.inkscape.org/namespaces/inkscape"
   xmlns:sodipodi="http://sodipodi.sourceforge.net/DTD/sodipodi-0.dtd"
   xmlns="http://www.w3.org/2000/svg"
   xmlns:svg="http://www.w3.org/2000/svg">
  <defs
     id="defs24" />
  <sodipodi:namedview
     id="namedview24"
     pagecolor="#ffffff"
     bordercolor="#000000"
     borderopacity="0.25"
     inkscape:showpageshadow="2"
     inkscape:pageopacity="0.0"
     inkscape:pagecheckerboard="0"
     inkscape:deskcolor="#d1d1d1"
     inkscape:zoom="1.006"
     inkscape:cx="350.39761"
     inkscape:cy="250"
     inkscape:window-width="1366"
     inkscape:window-height="705"
     inkscape:window-x="-8"
     inkscape:window-y="-8"
     inkscape:window-maximized="1"
     inkscape:current-layer="svg24" />
  <rect
     width="700"
     height="500"
     x="0"
     y="0"
     fill="#FFFFFF"
     id="background" />
  <g
     id="viz">
    <g
       id="g24"
       transform="translate(0,0)">
      <g
         transform="translate(10,20)"
         id="g23">
        <g
           id="g6">
          <path
             fill="#9467bd"
             d="M0,395.92356519734165L2.463768115942029,395.8403269894264C4.927536231884058,395.7570887815111,9.855072463768115,395.5906123656805,14.782608695652174,395.7654828197278C19.71014492753623,395.940353273775,24.637681159420293,396.4565705977,29.565217391304348,395.3206302971528C34.492753623188406,394.1846899966056,39.42028985507246,391.3965920715861,44.34782608695652,387.6078433002042C49.275362318840585,383.81909452882223,54.20289855072463,379.0296949110778,59.130434782608695,373.41971762512225C64.05797101449275,367.80974033916664,68.98550724637681,361.37918538499997,73.91304347826087,361.4435278051389C78.84057971014494,361.5078702252777,83.76811594202898,368.0671100197222,88.69565217391305,373.3650851259722C93.62318840579711,378.6630602322222,98.55072463768117,382.69977065027774,103.47826086956523,384.5679729611805C108.40579710144927,386.43617527208335,113.33333333333333,386.13586947583326,118.26086956521738,386.1580597698944C123.18840579710145,386.18025006395555,128.1159420289855,386.52493644832776,133.04347826086956,383.72928510680975C137.97101449275362,380.9336337652917,142.8985507246377,374.99764469788335,147.82608695652172,352.78079392635004C152.75362318840578,330.5639431548167,157.68115942028984,292.0662306791583,162.6086956521739,273.7779907814958C167.53623188405797,255.48975088383335,172.46376811594203,257.41098356416666,177.3913043478261,256.9028192370139C182.31884057971016,256.3946549098611,187.24637681159422,253.45709357522222,192.17391304347825,246.5682226303278C197.10144927536234,239.67935168543332,202.02898550724638,228.83917113028335,206.9565217391304,220.0733649551208C211.8840579710145,211.3075587799583,216.8115942028986,204.61612698478334,221.73913043478262,201.11147174309443C226.66666666666666,197.60681650140552,231.59420289855075,197.28893781320275,236.52173913043478,193.3474111452944C241.44927536231884,189.40588447738605,246.37681159420288,181.84070982977218,251.3043478260869,204.5902956941958C256.231884057971,227.3398815586194,261.15942028985506,280.40422793508054,266.0869565217391,306.4311281104736C271.0144927536232,332.4580282858667,275.94202898550725,331.4474822601917,280.8695652173913,332.4814018015542C285.7971014492754,333.5153213429167,290.72463768115944,336.5937064513167,295.6521739130435,338.30564742698334C300.57971014492756,340.01758840265,305.50724637681157,340.3630852455833,310.4347826086956,344.9082638173097C315.3623188405797,349.45344238903607,320.28985507246375,358.19830268955553,325.2173913043478,365.1765266983611C330.1449275362319,372.15475070716667,335.07246376811594,377.36633842425834,340,382.1164244134347C344.92753623188406,386.8665104026111,349.8550724637682,391.1550946638722,354.7826086956522,393.2939550466847C359.71014492753625,395.43281542949717,364.63768115942025,395.42195193386107,369.5652173913043,398.2694310114389C374.4927536231883,401.1169100890167,379.42028985507244,406.8227317398084,384.3478260869565,412.6704583849919C389.27536231884056,418.5181850301753,394.2028985507247,424.5078166697506,399.13043478260875,428.5937033016807C404.0579710144928,432.6795899336109,408.9855072463768,434.86173155789584,413.9130434782608,438.45363950960683C418.84057971014494,442.04554746131777,423.768115942029,447.04722174045475,428.695652173913,449.7016994028038C433.6231884057972,452.35617706515285,438.5507246376812,452.6634581107139,443.47826086956525,453.6896807253224C448.4057971014493,454.7159033399309,453.3333333333333,456.4610675235867,458.26086956521743,457.5778309909255C463.18840579710144,458.6945944582644,468.1159420289855,459.18295720928637,473.0434782608695,459.4669298825404C477.97101449275357,459.7509025557944,482.8985507246377,459.8304851512806,487.82608695652175,459.87344631443176C492.75362318840575,459.9164074775831,497.6811594202898,459.9227472083994,502.6086956521738,459.93432205924483C507.536231884058,459.9458969100903,512.463768115942,459.96270688096473,517.3913043478261,459.97452572442876C522.3188405797101,459.9863445678928,527.2463768115941,459.9931722839464,532.1739130434783,459.9965861419732C537.1014492753624,460,542.0289855072464,460,546.9565217391304,460C551.8840579710145,460,556.8115942028986,460,561.7391304347826,460C566.6666666666666,460,571.5942028985506,460,576.5217391304348,460C581.4492753623189,460,586.3768115942029,460,591.304347826087,460C596.231884057971,460,601.1594202898551,460,606.0869565217391,460C611.0144927536231,460,615.9420289855071,460,620.8695652173913,460C625.7971014492754,460,630.7246376811594,460,635.6521739130434,460C640.5797101449275,460,645.5072463768116,460,650.4347826086956,460C655.3623188405796,460,660.2898550724639,460,665.2173913043479,460C670.1449275362319,460,675.072463768116,460,677.536231884058,460L680,460L680,460L677.536231884058,460C675.072463768116,460,670.1449275362319,460,665.2173913043479,460C660.2898550724639,460,655.3623188405796,460,650.4347826086956,460C645.5072463768116,460,640.5797101449275,460,635.6521739130435,460C630.7246376811594,460,625.7971014492754,460,620.8695652173913,460C615.9420289855071,460,611.0144927536231,460,606.0869565217391,460C601.1594202898551,460,596.231884057971,460,591.304347826087,460C586.3768115942029,460,581.4492753623189,460,576.5217391304348,460C571.5942028985506,460,566.6666666666666,460,561.7391304347826,460C556.8115942028986,460,551.8840579710145,460,546.9565217391305,460C542.0289855072464,460,537.1014492753624,460,532.1739130434783,460C527.2463768115941,460,522.3188405797101,460,517.3913043478261,460C512.463768115942,460,507.536231884058,460,502.6086956521738,460C497.6811594202898,460,492.75362318840575,460,487.8260869565217,460C482.8985507246377,460,477.97101449275357,460,473.04347826086956,459.8035021720043C468.1159420289855,459.6070043440086,463.18840579710144,459.2140086880172,458.2608695652173,458.52226593802135C453.3333333333333,457.83052318802555,448.4057971014493,456.84003334402524,443.47826086956525,456.66376463549454C438.5507246376812,456.4874959269639,433.6231884057972,457.1254483539028,428.69565217391306,455.66695917749826C423.768115942029,454.20847000109364,418.84057971014494,450.6535392213456,413.9130434782608,449.09992067198164C408.9855072463768,447.5463021226178,404.0579710144928,447.99399580363803,399.13043478260875,447.67163832719535C394.2028985507247,447.3492808507528,389.27536231884056,446.25687221684717,384.3478260869565,445.00556557242777C379.42028985507244,443.7542589280083,374.4927536231883,442.344054273075,369.5652173913043,442.4846017920792C364.63768115942025,442.6251493110833,359.71014492753625,444.31644900402495,354.7826086956522,445.4930894946569C349.8550724637682,446.6697299852888,344.92753623188406,447.33171127361106,340,447.76511249782357C335.07246376811594,448.19851372203607,330.1449275362319,448.40333488213884,325.2173913043478,448.43934182425C320.28985507246375,448.4753487663611,315.3623188405797,448.3425414904805,310.4347826086956,448.35304438007364C305.50724637681157,448.36354726966664,300.57971014492756,448.5173603247333,295.65217391304344,448.7677551208028C290.72463768115944,449.01814991687223,285.7971014492754,449.36512645394447,280.8695652173913,449.65233476420696C275.94202898550725,449.93954307446944,271.0144927536232,450.16698315792223,266.0869565217391,427.569757500793C261.15942028985506,404.97253184366383,256.231884057971,359.55064044595275,251.30434782608697,340.6310038015569C246.37681159420288,321.7113671571611,241.44927536231884,329.2939852660805,236.52173913043475,333.6911941299333C231.59420289855075,338.0884029937861,226.66666666666666,339.3002026125722,221.73913043478262,340.8676590115028C216.8115942028986,342.43511541043335,211.8840579710145,344.3582285895083,206.95652173913047,347.98445500840694C202.02898550724638,351.61068142730556,197.10144927536234,356.9400210860278,192.17391304347825,360.7517422096528C187.24637681159422,364.56346333327775,182.31884057971016,366.8575659218056,177.3913043478261,367.4788571800694C172.46376811594203,368.1001484383333,167.53623188405797,367.04862836633333,162.6086956521739,381.8823168291347C157.68115942028984,396.71600529193614,152.75362318840578,427.4349022895389,147.82608695652175,442.9353842404833C142.8985507246377,458.4358661914278,137.97101449275362,458.71793309571393,133.04347826086956,459.0256332145236C128.1159420289855,459.3333333333333,123.18840579710145,459.6666666666667,118.26086956521739,459.8333333333333C113.33333333333333,460,108.40579710144927,460,103.4782608695652,460C98.55072463768117,460,93.62318840579711,460,88.69565217391305,460C83.76811594202898,460,78.84057971014494,460,73.91304347826087,460C68.98550724637681,460,64.05797101449275,460,59.13043478260869,460C54.20289855072463,460,49.275362318840585,460,44.34782608695652,460C39.42028985507246,460,34.492753623188406,460,29.565217391304348,460C24.637681159420293,460,19.71014492753623,460,14.782608695652174,460C9.855072463768115,460,4.927536231884058,460,2.463768115942029,460L0,460Z"
             id="path1">
            <title
               id="title1">Tape</title>
          </path>
          <path
             fill="#1f77b4"
             d="M0,460L2.463768115942029,460C4.927536231884058,460,9.855072463768115,460,14.782608695652174,460C19.71014492753623,460,24.637681159420293,460,29.565217391304348,460C34.492753623188406,460,39.42028985507246,460,44.34782608695652,460C49.275362318840585,460,54.20289855072463,460,59.130434782608695,460C64.05797101449275,460,68.98550724637681,460,73.91304347826087,460C78.84057971014494,460,83.76811594202898,460,88.69565217391305,460C93.62318840579711,460,98.55072463768117,460,103.47826086956523,460C108.40579710144927,460,113.33333333333333,460,118.26086956521738,460C123.18840579710145,460,128.1159420289855,460,133.04347826086956,459.85896654785694C137.97101449275362,459.71793309571393,142.8985507246377,459.4358661914278,147.82608695652172,458.6239002702334C152.75362318840578,457.8119343490389,157.68115942028984,456.4700694109361,162.6086956521739,453.654804801093C167.53623188405797,450.83954019125,172.46376811594203,446.55087590966673,177.3913043478261,440.4322213398889C182.31884057971016,434.3135667701111,187.24637681159422,426.3649219121389,192.17391304347825,410.53477693555556C197.10144927536234,394.70463195897224,202.02898550724638,370.9929868637778,206.9565217391304,358.175607726643C211.8840579710145,345.3582285895083,216.8115942028986,343.43511541043335,221.73913043478262,341.8676590115028C226.66666666666666,340.3002026125722,231.59420289855075,339.0884029937861,236.52173913043478,334.6911941299333C241.44927536231884,330.2939852660805,246.37681159420288,322.7113671571611,251.3043478260869,295.5898570708583C256.231884057971,268.46834698455547,261.15942028985506,221.8079449208694,266.0869565217391,192.92472062766524C271.0144927536232,164.04149633446107,275.94202898550725,152.9354498117389,280.8695652173913,143.12969518802504C285.7971014492754,133.32394056431116,290.72463768115944,124.81847783960559,295.6521739130435,110.84408080372641C300.57971014492756,96.86968376784723,305.50724637681157,77.42635242079443,310.4347826086956,68.1854150471708C315.3623188405797,58.94447767354719,320.28985507246375,59.90593427335276,325.2173913043478,61.168930464190275C330.1449275362319,62.43192665502778,335.07246376811594,63.996462436897225,340,67.75329718880973C344.92753623188406,71.51013194072223,349.8550724637682,77.4592656626778,354.7826086956522,74.00160614917085C359.71014492753625,70.54394663566391,364.63768115942025,57.679493886694466,369.5652173913043,48.44978356648057C374.4927536231883,39.22007324626669,379.42028985507244,33.625105354808376,384.3478260869565,34.390489587561284C389.27536231884056,35.15587382031419,394.2028985507247,42.28161017727832,399.13043478260875,50.387116595861244C404.0579710144928,58.492623014444156,408.9855072463768,67.57789949464586,413.9130434782608,78.23875868300406C418.84057971014494,88.89961787136228,423.768115942029,101.13605976787694,428.695652173913,111.57656618223014C433.6231884057972,122.01707259658332,438.5507246376812,130.661643528775,443.47826086956525,134.22728892847525C448.4057971014493,137.79293432817553,453.3333333333333,136.27965419538438,458.26086956521743,137.5028573929987C463.18840579710144,138.726060590613,468.1159420289855,142.68574711863275,473.0434782608695,148.4202554088008C477.97101449275357,154.15476369896888,482.8985507246377,161.66409375128526,487.82608695652175,171.09608152885042C492.75362318840575,180.52806930641555,497.6811594202898,191.88271480922944,502.6086956521738,206.22853402121004C507.536231884058,220.57435323319055,512.463768115942,237.9113461543378,517.3913043478261,250.22803594355432C522.3188405797101,262.5447257327708,527.2463768115941,269.84111239005665,532.1739130434783,277.03103561879055C537.1014492753624,284.2209588475244,542.0289855072464,291.30441864770637,546.9565217391304,295.2077376632546C551.8840579710145,299.11105667880275,556.8115942028986,299.8342349097172,561.7391304347826,312.04303126777955C566.6666666666666,324.25182762584194,571.5942028985506,347.94624211105224,576.5217391304348,359.5946552634571C581.4492753623189,371.24306841586196,586.3768115942029,370.84548023546137,591.304347826087,377.25556307266805C596.231884057971,383.66564590987474,601.1594202898551,396.8833997646886,606.0869565217391,404.3468379438463C611.0144927536231,411.81027612300386,615.9420289855071,413.5193986265053,620.8695652173913,415.4793868656907C625.7971014492754,417.4393751048761,630.7246376811594,419.65022907974554,635.6521739130434,421.01549152634357C640.5797101449275,422.38075397294165,645.5072463768116,422.90042489126836,650.4347826086956,424.2328343450549C655.3623188405796,425.56524379884144,660.2898550724639,427.71039178808775,665.2173913043479,428.9180128766159C670.1449275362319,430.1256339651439,675.072463768116,430.3957281529536,677.536231884058,430.53077524685847L680,430.6658223407633L680,442.45571359460496L677.536231884058,442.63036705002196C675.072463768116,442.8050205054389,670.1449275362319,443.15432741627274,665.2173913043479,443.512236442276C660.2898550724639,443.8701454682792,655.3623188405796,444.2366566094517,650.4347826086956,444.4822682039214C645.5072463768116,444.72787979839114,640.5797101449275,444.8525918461581,635.6521739130435,444.94350510282806C630.7246376811594,445.03441835949803,625.7971014492754,445.09153282507106,620.8695652173913,445.42158081363806C615.9420289855071,445.751628802205,611.0144927536231,446.3546103137658,606.0869565217391,441.4219471462914C601.1594202898551,436.48928397881696,596.231884057971,426.0209761323072,591.304347826087,422.32590798766586C586.3768115942029,418.63083984302443,581.4492753623189,421.7090114002514,576.5217391304348,413.8189460785289C571.5942028985506,405.9288807568064,566.6666666666666,387.0705785561345,561.7391304347826,378.7155284783146C556.8115942028986,370.36047840049474,551.8840579710145,372.508680445527,546.9565217391305,373.79094605168825C542.0289855072464,375.07321165784947,537.1014492753624,375.4895408251398,532.1739130434783,376.36675346775127C527.2463768115941,377.2439661103628,522.3188405797101,378.58206222829557,517.3913043478261,379.2254122368547C512.463768115942,379.86876224541385,507.536231884058,379.8173661445994,502.6086956521738,382.7148086955289C497.6811594202898,385.61225124645836,492.75362318840575,391.4585324491317,487.8260869565217,396.68461564273736C482.8985507246377,401.91069883634304,477.97101449275357,406.51658402088106,473.04347826086956,412.38409814066523C468.1159420289855,418.25161226044946,463.18840579710144,425.3807553154797,458.2608695652173,430.21167373968905C453.3333333333333,435.0425921638983,448.4057971014493,437.57528595728667,443.47826086956525,439.1506317175711C438.5507246376812,440.72597747785557,433.6231884057972,441.3439752050361,428.69565217391306,440.66662411028705C423.768115942029,439.989273015538,418.84057971014494,438.01657309885945,413.9130434782608,435.9391523283777C408.9855072463768,433.86173155789584,404.0579710144928,431.6795899336109,399.13043478260875,427.5937033016807C394.2028985507247,423.5078166697506,389.27536231884056,417.5181850301753,384.3478260869565,411.67045838499183C379.42028985507244,405.8227317398084,374.4927536231883,400.1169100890167,369.5652173913043,397.2694310114389C364.63768115942025,394.42195193386107,359.71014492753625,394.43281542949717,354.7826086956522,392.2939550466847C349.8550724637682,390.1550946638722,344.92753623188406,385.8665104026111,340,381.1164244134347C335.07246376811594,376.36633842425834,330.1449275362319,371.15475070716667,325.2173913043478,364.1765266983611C320.28985507246375,357.19830268955553,315.3623188405797,348.45344238903607,310.4347826086956,343.9082638173097C305.50724637681157,339.3630852455833,300.57971014492756,339.01758840265,295.65217391304344,337.30564742698334C290.72463768115944,335.5937064513167,285.7971014492754,332.5153213429167,280.8695652173913,331.4814018015542C275.94202898550725,330.4474822601917,271.0144927536232,331.4580282858667,266.0869565217391,350.67822691268333C261.15942028985506,369.8984255395,256.231884057971,407.32827676745836,251.30434782608697,425.27258451761804C246.37681159420288,443.2168922677777,241.44927536231884,441.67565654013896,236.52173913043475,438.9632129555694C231.59420289855075,436.250769371,226.66666666666666,432.3671179295,221.73913043478262,428.34815905245836C216.8115942028986,424.32920017541664,211.8840579710145,420.1749338628333,206.95652173913047,425.42768944816663C202.02898550724638,430.6804450335,197.10144927536234,445.34022251675,192.17391304347825,452.670111258375C187.24637681159422,460,182.31884057971016,460,177.3913043478261,460C172.46376811594203,460,167.53623188405797,460,162.6086956521739,460C157.68115942028984,460,152.75362318840578,460,147.82608695652175,460C142.8985507246377,460,137.97101449275362,460,133.04347826086956,460C128.1159420289855,460,123.18840579710145,460,118.26086956521739,460C113.33333333333333,460,108.40579710144927,460,103.4782608695652,460C98.55072463768117,460,93.62318840579711,460,88.69565217391305,460C83.76811594202898,460,78.84057971014494,460,73.91304347826087,460C68.98550724637681,460,64.05797101449275,460,59.13043478260869,460C54.20289855072463,460,49.275362318840585,460,44.34782608695652,460C39.42028985507246,460,34.492753623188406,460,29.565217391304348,460C24.637681159420293,460,19.71014492753623,460,14.782608695652174,460C9.855072463768115,460,4.927536231884058,460,2.463768115942029,460L0,460Z"
             id="path2">
            <title
               id="title2">Disc</title>
          </path>
          <path
             fill="#ff7f0e"
             d="M0,460L2.463768115942029,460C4.927536231884058,460,9.855072463768115,460,14.782608695652174,460C19.71014492753623,460,24.637681159420293,460,29.565217391304348,460C34.492753623188406,460,39.42028985507246,460,44.34782608695652,460C49.275362318840585,460,54.20289855072463,460,59.130434782608695,460C64.05797101449275,460,68.98550724637681,460,73.91304347826087,460C78.84057971014494,460,83.76811594202898,460,88.69565217391305,460C93.62318840579711,460,98.55072463768117,460,103.47826086956523,460C108.40579710144927,460,113.33333333333333,460,118.26086956521738,459.8333333333333C123.18840579710145,459.6666666666667,128.1159420289855,459.3333333333333,133.04347826086956,459.3333333333333C137.97101449275362,459.3333333333333,142.8985507246377,459.6666666666667,147.82608695652172,459.8333333333333C152.75362318840578,460,157.68115942028984,460,162.6086956521739,460C167.53623188405797,460,172.46376811594203,460,177.3913043478261,460C182.31884057971016,460,187.24637681159422,460,192.17391304347825,460C197.10144927536234,460,202.02898550724638,460,206.9565217391304,460C211.8840579710145,460,216.8115942028986,460,221.73913043478262,460C226.66666666666666,460,231.59420289855075,460,236.52173913043478,460C241.44927536231884,460,246.37681159420288,460,251.3043478260869,460C256.231884057971,460,261.15942028985506,460,266.0869565217391,460C271.0144927536232,460,275.94202898550725,460,280.8695652173913,460C285.7971014492754,460,290.72463768115944,460,295.6521739130435,460C300.57971014492756,460,305.50724637681157,460,310.4347826086956,460C315.3623188405797,460,320.28985507246375,460,325.2173913043478,460C330.1449275362319,460,335.07246376811594,460,340,460C344.92753623188406,460,349.8550724637682,460,354.7826086956522,460C359.71014492753625,460,364.63768115942025,460,369.5652173913043,460C374.4927536231883,460,379.42028985507244,460,384.3478260869565,460C389.27536231884056,460,394.2028985507247,460,399.13043478260875,460C404.0579710144928,460,408.9855072463768,460,413.9130434782608,460C418.84057971014494,460,423.768115942029,460,428.695652173913,460C433.6231884057972,460,438.5507246376812,460,443.47826086956525,458.4048937441293C448.4057971014493,456.80978748825856,453.3333333333333,453.6195749765172,458.26086956521743,445.6399865107537C463.18840579710144,437.66039804499025,468.1159420289855,424.8914336252047,473.0434782608695,416.2040088230429C477.97101449275357,407.51658402088106,482.8985507246377,402.91069883634304,487.82608695652175,397.68461564273736C492.75362318840575,392.4585324491317,497.6811594202898,386.61225124645836,502.6086956521738,383.7148086955289C507.536231884058,380.8173661445994,512.463768115942,380.86876224541385,517.3913043478261,380.2254122368547C522.3188405797101,379.58206222829557,527.2463768115941,378.2439661103628,532.1739130434783,377.3667534677513C537.1014492753624,376.4895408251398,542.0289855072464,376.07321165784947,546.9565217391304,374.79094605168825C551.8840579710145,373.508680445527,556.8115942028986,371.36047840049474,561.7391304347826,359.79550436599806C566.6666666666666,348.23053033150137,571.5942028985506,327.2487843075403,576.5217391304348,317.0502962728942C581.4492753623189,306.85180823824805,586.3768115942029,307.43657819291695,591.304347826087,309.29697402234444C596.231884057971,311.157369851772,601.1594202898551,314.29339155595807,606.0869565217391,324.03279162968124C611.0144927536231,333.7721917034044,615.9420289855071,350.11497014666475,620.8695652173913,361.0703760470347C625.7971014492754,372.02578194740477,630.7246376811594,377.59381530488446,635.6521739130434,382.2490391182923C640.5797101449275,386.90426293170003,645.5072463768116,390.64667720103586,650.4347826086956,394.88930543529415C655.3623188405796,399.13193366955255,660.2898550724639,403.87477586873337,665.2173913043479,407.0257279820242C670.1449275362319,410.176680095315,675.072463768116,411.73574212271586,677.536231884058,412.5152731364163L680,413.2948041501167L680,429.6658223407633L677.536231884058,429.53077524685847C675.072463768116,429.3957281529536,670.1449275362319,429.1256339651439,665.2173913043479,427.9180128766158C660.2898550724639,426.71039178808775,655.3623188405796,424.56524379884144,650.4347826086956,423.23283434505487C645.5072463768116,421.90042489126836,640.5797101449275,421.38075397294165,635.6521739130435,420.0154915263436C630.7246376811594,418.65022907974554,625.7971014492754,416.4393751048761,620.8695652173913,408.0084104150796C615.9420289855071,399.57744572528304,611.0144927536231,384.92637032055944,606.0869565217391,377.4629321414018C601.1594202898551,369.9994939622441,596.231884057971,369.72369300865256,591.304347826087,369.7845866220569C586.3768115942029,369.84548023546137,581.4492753623189,370.24306841586196,576.5217391304348,380.73931351635673C571.5942028985506,391.23555861685145,566.6666666666666,411.83046063744024,561.7391304347826,422.7540515907578C556.8115942028986,433.6776425440753,551.8840579710145,434.9299224301214,546.9565217391305,435.80254630676177C542.0289855072464,436.67517018340226,537.1014492753624,437.16813805063697,532.1739130434783,438.1458876965582C527.2463768115941,439.12363734247947,522.3188405797101,440.5861687670872,517.3913043478261,440.5287798230936C512.463768115942,440.4713908791,507.536231884058,438.894081566505,502.6086956521738,438.2875877659928C497.6811594202898,437.68109396548056,492.75362318840575,438.0454156770511,487.8260869565217,437.7114918951734C482.8985507246377,437.3775681132958,477.97101449275357,436.34539883797,473.04347826086956,439.1420056411916C468.1159420289855,441.9386124444131,463.18840579710144,448.5639953261819,458.2608695652173,452.6784570657412C453.3333333333333,456.79291880530053,448.4057971014493,458.39645940265024,443.47826086956525,459.19822970132515C438.5507246376812,460,433.6231884057972,460,428.69565217391306,460C423.768115942029,460,418.84057971014494,460,413.9130434782608,460C408.9855072463768,460,404.0579710144928,460,399.13043478260875,460C394.2028985507247,460,389.27536231884056,460,384.3478260869565,460C379.42028985507244,460,374.4927536231883,460,369.5652173913043,460C364.63768115942025,460,359.71014492753625,460,354.7826086956522,460C349.8550724637682,460,344.92753623188406,460,340,460C335.07246376811594,460,330.1449275362319,460,325.2173913043478,460C320.28985507246375,460,315.3623188405797,460,310.4347826086956,460C305.50724637681157,460,300.57971014492756,460,295.65217391304344,460C290.72463768115944,460,285.7971014492754,460,280.8695652173913,460C275.94202898550725,460,271.0144927536232,460,266.0869565217391,460C261.15942028985506,460,256.231884057971,460,251.30434782608697,460C246.37681159420288,460,241.44927536231884,460,236.52173913043475,460C231.59420289855075,460,226.66666666666666,460,221.73913043478262,460C216.8115942028986,460,211.8840579710145,460,206.95652173913047,460C202.02898550724638,460,197.10144927536234,460,192.17391304347825,460C187.24637681159422,460,182.31884057971016,460,177.3913043478261,460C172.46376811594203,460,167.53623188405797,460,162.6086956521739,460C157.68115942028984,460,152.75362318840578,460,147.82608695652175,459.8333333333333C142.8985507246377,459.6666666666667,137.97101449275362,459.3333333333333,133.04347826086956,459.3333333333333C128.1159420289855,459.3333333333333,123.18840579710145,459.6666666666667,118.26086956521739,459.8333333333333C113.33333333333333,460,108.40579710144927,460,103.4782608695652,460C98.55072463768117,460,93.62318840579711,460,88.69565217391305,460C83.76811594202898,460,78.84057971014494,460,73.91304347826087,460C68.98550724637681,460,64.05797101449275,460,59.13043478260869,460C54.20289855072463,460,49.275362318840585,460,44.34782608695652,460C39.42028985507246,460,34.492753623188406,460,29.565217391304348,460C24.637681159420293,460,19.71014492753623,460,14.782608695652174,460C9.855072463768115,460,4.927536231884058,460,2.463768115942029,460L0,460Z"
             id="path3">
            <title
               id="title3">Download</title>
          </path>
          <path
             fill="#2ca02c"
             d="M0,460L2.463768115942029,460C4.927536231884058,460,9.855072463768115,460,14.782608695652174,460C19.71014492753623,460,24.637681159420293,460,29.565217391304348,460C34.492753623188406,460,39.42028985507246,460,44.34782608695652,460C49.275362318840585,460,54.20289855072463,460,59.130434782608695,460C64.05797101449275,460,68.98550724637681,460,73.91304347826087,460C78.84057971014494,460,83.76811594202898,460,88.69565217391305,460C93.62318840579711,460,98.55072463768117,460,103.47826086956523,460C108.40579710144927,460,113.33333333333333,460,118.26086956521738,459.8333333333333C123.18840579710145,459.6666666666667,128.1159420289855,459.3333333333333,133.04347826086956,459.3333333333333C137.97101449275362,459.3333333333333,142.8985507246377,459.6666666666667,147.82608695652172,459.8333333333333C152.75362318840578,460,157.68115942028984,460,162.6086956521739,460C167.53623188405797,460,172.46376811594203,460,177.3913043478261,460C182.31884057971016,460,187.24637681159422,460,192.17391304347825,460C197.10144927536234,460,202.02898550724638,460,206.9565217391304,460C211.8840579710145,460,216.8115942028986,460,221.73913043478262,459.2399587708333C226.66666666666666,458.4799175416667,231.59420289855075,456.9598350833333,236.52173913043478,455.88321440280555C241.44927536231884,454.80659372227774,246.37681159420288,454.17343481955555,251.3043478260869,453.4992132556181C256.231884057971,452.8249916916806,261.15942028985506,452.1097074665278,266.0869565217391,451.63834531222506C271.0144927536232,451.16698315792223,275.94202898550725,450.93954307446944,280.8695652173913,450.65233476420696C285.7971014492754,450.36512645394447,290.72463768115944,450.01814991687223,295.6521739130435,449.76775512080275C300.57971014492756,449.5173603247333,305.50724637681157,449.36354726966664,310.4347826086956,449.35304438007364C315.3623188405797,449.3425414904805,320.28985507246375,449.4753487663611,325.2173913043478,449.43934182425C330.1449275362319,449.40333488213884,335.07246376811594,449.19851372203607,340,448.76511249782357C344.92753623188406,448.33171127361106,349.8550724637682,447.6697299852888,354.7826086956522,446.49308949465694C359.71014492753625,445.31644900402495,364.63768115942025,443.6251493110833,369.5652173913043,443.4846017920791C374.4927536231883,443.344054273075,379.42028985507244,444.7542589280083,384.3478260869565,446.0055655724277C389.27536231884056,447.25687221684717,394.2028985507247,448.3492808507528,399.13043478260875,448.67163832719547C404.0579710144928,448.99399580363803,408.9855072463768,448.5463021226178,413.9130434782608,447.4663493638775C418.84057971014494,446.38639660513724,423.768115942029,444.6741847686769,428.695652173913,443.5090799868565C433.6231884057972,442.3439752050361,438.5507246376812,441.72597747785557,443.47826086956525,440.1506317175711C448.4057971014493,438.57528595728667,453.3333333333333,436.0425921638983,458.26086956521743,435.24346713255983C463.18840579710144,434.44434210122137,468.1159420289855,435.3787858319327,473.0434782608695,436.36209233495134C477.97101449275357,437.34539883797,482.8985507246377,438.3775681132958,487.82608695652175,438.7114918951734C492.75362318840575,439.0454156770511,497.6811594202898,438.68109396548056,502.6086956521738,440.67338106618723C507.536231884058,442.6656681668939,512.463768115942,447.0145640798778,517.3913043478261,447.0719530238714C522.3188405797101,447.129341967865,527.2463768115941,442.89522394286837,532.1739130434783,442.4271716795165C537.1014492753624,441.9591194161647,542.0289855072464,445.25713291445777,546.9565217391304,446.92418976447016C551.8840579710145,448.5912466144825,556.8115942028986,448.6273468162142,561.7391304347826,448.6731593066409C566.6666666666666,448.71897179706775,571.5942028985506,448.77449657618973,576.5217391304348,448.6887799360122C581.4492753623189,448.6030632958347,586.3768115942029,448.3761052363578,591.304347826087,448.23070031469365C596.231884057971,448.0852953930294,601.1594202898551,448.02144360917805,606.0869565217391,449.0232327562662C611.0144927536231,450.02502190335446,615.9420289855071,452.0924519813822,620.8695652173913,453.15511825046593C625.7971014492754,454.2177845195497,630.7246376811594,454.27568697968945,635.6521739130434,454.3309138118057C640.5797101449275,454.3861406439219,645.5072463768116,454.43869184801474,650.4347826086956,454.3476919426973C655.3623188405796,454.2566920373797,660.2898550724639,454.02214102265197,665.2173913043479,453.9607822143461C670.1449275362319,453.8994234060403,675.072463768116,454.01125680415635,677.536231884058,454.06717350321446L680,454.12309020227246L680,460L677.536231884058,460C675.072463768116,460,670.1449275362319,460,665.2173913043479,460C660.2898550724639,460,655.3623188405796,460,650.4347826086956,460C645.5072463768116,460,640.5797101449275,460,635.6521739130435,460C630.7246376811594,460,625.7971014492754,460,620.8695652173913,458.97314909349876C615.9420289855071,457.94629818699747,611.0144927536231,455.892596373995,606.0869565217391,454.97669421809843C601.1594202898551,454.0607920622019,596.231884057971,454.2826895634114,591.304347826087,454.5542991417721C586.3768115942029,454.82590872013276,581.4492753623189,455.14723037564477,576.5217391304348,455.4462612388752C571.5942028985506,455.74529210210557,566.6666666666666,456.0220321730544,561.7391304347826,456.2690367516375C556.8115942028986,456.51604133022056,551.8840579710145,456.73331041643775,546.9565217391305,455.3875726255504C542.0289855072464,454.041834834663,537.1014492753624,451.1330901666711,532.1739130434783,451.078506459892C527.2463768115941,451.023922753113,522.3188405797101,453.82350000754695,517.3913043478261,454.1038307833326C512.463768115942,454.38416155911835,507.536231884058,452.14524585625577,502.6086956521738,451.1211823691854C497.6811594202898,450.09711888211496,492.75362318840575,450.2879076108367,487.8260869565217,450.5916149727156C482.8985507246377,450.8953223345945,477.97101449275357,451.31194832963064,473.04347826086956,451.1370593505001C468.1159420289855,450.9621703713697,463.18840579710144,450.19576641807276,458.2608695652173,450.2361272233409C453.3333333333333,450.27648802860887,448.4057971014493,451.1236135924419,443.47826086956525,451.39353585157795C438.5507246376812,451.6634581107139,433.6231884057972,451.35617706515285,428.69565217391306,452.25656917546394C423.768115942029,453.156961285775,418.84057971014494,455.26502655195833,413.9130434782608,456.33410815321946C408.9855072463768,457.40318975448054,404.0579710144928,457.43328769081944,399.13043478260875,457.41178647118886C394.2028985507247,457.3902852515583,389.27536231884056,457.3171848759584,384.3478260869565,457.27417119551114C379.42028985507244,457.2311575150639,374.4927536231883,457.21823052976947,369.5652173913043,457.1602949788014C364.63768115942025,457.10235942783333,359.71014492753625,456.9994153111916,354.7826086956522,456.85974043985135C349.8550724637682,456.7200655685111,344.92753623188406,456.54365994247223,340,456.5094857828653C335.07246376811594,456.4753116232583,330.1449275362319,456.5833689300833,325.2173913043478,456.6639659811388C320.28985507246375,456.74456303219443,315.3623188405797,456.7976998274805,310.4347826086956,456.8331821715042C305.50724637681157,456.86866451552777,300.57971014492756,456.88649240828886,295.65217391304344,456.7795908057194C290.72463768115944,456.67268920315,285.7971014492754,456.44105810524997,280.8695652173913,456.23089283927635C275.94202898550725,456.0207275733028,271.0144927536232,455.83202813925556,266.0869565217391,456.46379030469717C261.15942028985506,457.0955524701389,256.231884057971,458.5477762350694,251.30434782608697,459.2738881175347C246.37681159420288,460,241.44927536231884,460,236.52173913043475,460C231.59420289855075,460,226.66666666666666,460,221.73913043478262,460C216.8115942028986,460,211.8840579710145,460,206.95652173913047,460C202.02898550724638,460,197.10144927536234,460,192.17391304347825,460C187.24637681159422,460,182.31884057971016,460,177.3913043478261,460C172.46376811594203,460,167.53623188405797,460,162.6086956521739,460C157.68115942028984,460,152.75362318840578,460,147.82608695652175,459.8333333333333C142.8985507246377,459.6666666666667,137.97101449275362,459.3333333333333,133.04347826086956,459.3333333333333C128.1159420289855,459.3333333333333,123.18840579710145,459.6666666666667,118.26086956521739,459.8333333333333C113.33333333333333,460,108.40579710144927,460,103.4782608695652,460C98.55072463768117,460,93.62318840579711,460,88.69565217391305,460C83.76811594202898,460,78.84057971014494,460,73.91304347826087,460C68.98550724637681,460,64.05797101449275,460,59.13043478260869,460C54.20289855072463,460,49.275362318840585,460,44.34782608695652,460C39.42028985507246,460,34.492753623188406,460,29.565217391304348,460C24.637681159420293,460,19.71014492753623,460,14.782608695652174,460C9.855072463768115,460,4.927536231884058,460,2.463768115942029,460L0,460Z"
             id="path4">
            <title
               id="title4">Other</title>
          </path>
          <path
             fill="#d62728"
             d="M0,460L2.463768115942029,460C4.927536231884058,460,9.855072463768115,460,14.782608695652174,460C19.71014492753623,460,24.637681159420293,460,29.565217391304348,460C34.492753623188406,460,39.42028985507246,460,44.34782608695652,460C49.275362318840585,460,54.20289855072463,460,59.130434782608695,460C64.05797101449275,460,68.98550724637681,460,73.91304347826087,460C78.84057971014494,460,83.76811594202898,460,88.69565217391305,460C93.62318840579711,460,98.55072463768117,460,103.47826086956523,460C108.40579710144927,460,113.33333333333333,460,118.26086956521738,459.8333333333333C123.18840579710145,459.6666666666667,128.1159420289855,459.3333333333333,133.04347826086956,459.3333333333333C137.97101449275362,459.3333333333333,142.8985507246377,459.6666666666667,147.82608695652172,459.8333333333333C152.75362318840578,460,157.68115942028984,460,162.6086956521739,460C167.53623188405797,460,172.46376811594203,460,177.3913043478261,460C182.31884057971016,460,187.24637681159422,460,192.17391304347825,460C197.10144927536234,460,202.02898550724638,460,206.9565217391304,459.8333333333333C211.8840579710145,459.6666666666667,216.8115942028986,459.3333333333333,221.73913043478262,459.3333333333333C226.66666666666666,459.3333333333333,231.59420289855075,459.6666666666667,236.52173913043478,459.8333333333333C241.44927536231884,460,246.37681159420288,460,251.3043478260869,460C256.231884057971,460,261.15942028985506,460,266.0869565217391,460C271.0144927536232,460,275.94202898550725,460,280.8695652173913,460C285.7971014492754,460,290.72463768115944,460,295.6521739130435,460C300.57971014492756,460,305.50724637681157,460,310.4347826086956,460C315.3623188405797,460,320.28985507246375,460,325.2173913043478,460C330.1449275362319,460,335.07246376811594,460,340,460C344.92753623188406,460,349.8550724637682,460,354.7826086956522,460C359.71014492753625,460,364.63768115942025,460,369.5652173913043,460C374.4927536231883,460,379.42028985507244,460,384.3478260869565,460C389.27536231884056,460,394.2028985507247,460,399.13043478260875,460C404.0579710144928,460,408.9855072463768,460,413.9130434782608,460C418.84057971014494,460,423.768115942029,460,428.695652173913,459.8333333333333C433.6231884057972,459.6666666666667,438.5507246376812,459.3333333333333,443.47826086956525,459.3035021720043C448.4057971014493,459.2736710106753,453.3333333333333,459.5473420213505,458.26086956521743,458.502104408795C463.18840579710144,457.45686679623947,468.1159420289855,455.0927205604531,473.0434782608695,453.7023344450419C477.97101449275357,452.31194832963064,482.8985507246377,451.8953223345945,487.82608695652175,451.5916149727156C492.75362318840575,451.2879076108367,497.6811594202898,451.09711888211496,502.6086956521738,449.69211952413775C507.536231884058,448.28712016616055,512.463768115942,445.66791017892774,517.3913043478261,445.38757940314207C522.3188405797101,445.10724862735634,527.2463768115941,447.1657970630178,532.1739130434783,446.1880474170966C537.1014492753624,445.21029777117525,542.0289855072464,441.1962500436714,546.9565217391304,438.56308623689637C551.8840579710145,435.9299224301214,556.8115942028986,434.6776425440753,561.7391304347826,432.7784726509604C566.6666666666666,430.87930275784555,571.5942028985506,428.3332428576619,576.5217391304348,425.5211271289567C581.4492753623189,422.7090114002514,586.3768115942029,419.63083984302443,591.304347826087,410.5455251694173C596.231884057971,401.4602104958103,601.1594202898551,386.367752705823,606.0869565217391,369.81904882559434C611.0144927536231,353.2703449453656,615.9420289855071,335.2653949748953,620.8695652173913,323.59796179738055C625.7971014492754,311.9305286198658,630.7246376811594,306.6006122353067,635.6521739130434,300.4157932132839C640.5797101449275,294.2309741912611,645.5072463768116,287.19125253177475,650.4347826086956,280.95660180867753C655.3623188405796,274.7219510855803,660.2898550724639,269.29237129887224,665.2173913043479,263.1051197171353C670.1449275362319,256.91786813539835,675.072463768116,249.9729447586325,677.536231884058,246.5004830702496L680,243.02802138186667L680,412.2948041501167L677.536231884058,411.5152731364162C675.072463768116,410.73574212271586,670.1449275362319,409.176680095315,665.2173913043479,406.0257279820242C660.2898550724639,402.87477586873337,655.3623188405796,398.13193366955255,650.4347826086956,393.88930543529415C645.5072463768116,389.64667720103586,640.5797101449275,385.90426293170003,635.6521739130435,381.2490391182923C630.7246376811594,376.59381530488446,625.7971014492754,371.02578194740477,620.8695652173913,375.51566610692777C615.9420289855071,380.0055502664509,611.0144927536231,394.5533519429767,606.0869565217391,408.1685850408026C601.1594202898551,421.78381813862865,596.231884057971,434.46648265775474,591.304347826087,440.92129394705626C586.3768115942029,447.3761052363578,581.4492753623189,447.6030632958347,576.5217391304348,447.68877993601217C571.5942028985506,447.77449657618973,566.6666666666666,447.71897179706775,561.7391304347826,447.6731593066409C556.8115942028986,447.6273468162142,551.8840579710145,447.5912466144825,546.9565217391305,449.22828663892415C542.0289855072464,450.8653266633658,537.1014492753624,454.1755069139808,532.1739130434783,454.6435591773327C527.2463768115941,455.1116114406845,522.3188405797101,452.73753571677304,517.3913043478261,452.70546004948795C512.463768115942,452.6733843822028,507.536231884058,454.98330877154393,502.6086956521738,456.13737106916C497.6811594202898,457.2914333667761,492.75362318840575,457.28963357266724,487.8260869565217,457.2380700101433C482.8985507246377,457.1865064476195,477.97101449275357,457.0851791166806,473.04347826086956,457.5372068202542C468.1159420289855,457.98923452382786,463.18840579710144,458.9946172619139,458.2608695652173,459.33064196429024C453.3333333333333,459.6666666666667,448.4057971014493,459.3333333333333,443.47826086956525,459.3333333333333C438.5507246376812,459.3333333333333,433.6231884057972,459.6666666666667,428.69565217391306,459.8333333333333C423.768115942029,460,418.84057971014494,460,413.9130434782608,460C408.9855072463768,460,404.0579710144928,460,399.13043478260875,460C394.2028985507247,460,389.27536231884056,460,384.3478260869565,460C379.42028985507244,460,374.4927536231883,460,369.5652173913043,460C364.63768115942025,460,359.71014492753625,460,354.7826086956522,460C349.8550724637682,460,344.92753623188406,460,340,460C335.07246376811594,460,330.1449275362319,460,325.2173913043478,460C320.28985507246375,460,315.3623188405797,460,310.4347826086956,460C305.50724637681157,460,300.57971014492756,460,295.65217391304344,460C290.72463768115944,460,285.7971014492754,460,280.8695652173913,460C275.94202898550725,460,271.0144927536232,460,266.0869565217391,460C261.15942028985506,460,256.231884057971,460,251.30434782608697,460C246.37681159420288,460,241.44927536231884,460,236.52173913043475,459.8333333333333C231.59420289855075,459.6666666666667,226.66666666666666,459.3333333333333,221.73913043478262,459.3333333333333C216.8115942028986,459.3333333333333,211.8840579710145,459.6666666666667,206.95652173913047,459.8333333333333C202.02898550724638,460,197.10144927536234,460,192.17391304347825,460C187.24637681159422,460,182.31884057971016,460,177.3913043478261,460C172.46376811594203,460,167.53623188405797,460,162.6086956521739,460C157.68115942028984,460,152.75362318840578,460,147.82608695652175,459.8333333333333C142.8985507246377,459.6666666666667,137.97101449275362,459.3333333333333,133.04347826086956,459.3333333333333C128.1159420289855,459.3333333333333,123.18840579710145,459.6666666666667,118.26086956521739,459.8333333333333C113.33333333333333,460,108.40579710144927,460,103.4782608695652,460C98.55072463768117,460,93.62318840579711,460,88.69565217391305,460C83.76811594202898,460,78.84057971014494,460,73.91304347826087,460C68.98550724637681,460,64.05797101449275,460,59.13043478260869,460C54.20289855072463,460,49.275362318840585,460,44.34782608695652,460C39.42028985507246,460,34.492753623188406,460,29.565217391304348,460C24.637681159420293,460,19.71014492753623,460,14.782608695652174,460C9.855072463768115,460,4.927536231884058,460,2.463768115942029,460L0,460Z"
             id="path5">
            <title
               id="title5">Streaming</title>
          </path>
          <path
             fill="#8c564b"
             d="M0,236.44309603817496L2.463768115942029,237.09665213206526C4.927536231884058,237.7502082259555,9.855072463768115,239.05732041373608,14.782608695652174,239.8927928332C19.71014492753623,240.72826525266387,24.637681159420293,241.09209790381112,29.565217391304348,238.24593680909723C34.492753623188406,235.3997757143833,39.42028985507246,229.3436208738083,44.34782608695652,218.42207737881526C49.275362318840585,207.5005338838222,54.20289855072463,191.7136017344111,59.130434782608695,179.24993880095553C64.05797101449275,166.7862758675,68.98550724637681,157.64588215,73.91304347826087,163.47883395C78.84057971014494,169.31178574999998,83.76811594202898,190.11808306749995,88.69565217391305,205.37416552841668C93.62318840579711,220.6302479893333,98.55072463768117,230.33611559366668,103.47826086956523,235.97893964422224C108.40579710144927,241.6217636947778,113.33333333333333,243.2015441915556,118.26086956521738,248.8189413854083C123.18840579710145,254.4363385792611,128.1159420289855,264.0913524701889,133.04347826086956,268.5807597983792C137.97101449275362,273.07016712656946,142.8985507246377,272.3939678920222,147.82608695652172,287.935758214225C152.75362318840578,303.4775485364278,157.68115942028984,335.23732841538055,162.6086956521739,351.64297839085697C167.53623188405797,368.04862836633333,172.46376811594203,369.1001484383333,177.3913043478261,368.4788571800695C182.31884057971016,367.8575659218056,187.24637681159422,365.56346333327775,192.17391304347825,373.37496317326395C197.10144927536234,381.18646301325,202.02898550724638,399.10356528175,206.9565217391304,410.13924957229165C211.8840579710145,421.1749338628333,216.8115942028986,425.32920017541664,221.73913043478262,429.34815905245836C226.66666666666666,433.3671179295,231.59420289855075,437.250769371,236.52173913043478,439.9632129555694C241.44927536231884,442.67565654013896,246.37681159420288,444.2168922677777,251.3043478260869,446.80171024989585C256.231884057971,449.3865282320139,261.15942028985506,453.0149284686111,266.0869565217391,454.9234783039333C271.0144927536232,456.83202813925556,275.94202898550725,457.0207275733028,280.8695652173913,457.23089283927635C285.7971014492754,457.44105810524997,290.72463768115944,457.67268920315,295.6521739130435,457.7795908057194C300.57971014492756,457.88649240828886,305.50724637681157,457.86866451552777,310.4347826086956,457.8331821715041C315.3623188405797,457.7976998274805,320.28985507246375,457.74456303219443,325.2173913043478,457.6639659811389C330.1449275362319,457.5833689300833,335.07246376811594,457.4753116232583,340,457.5094857828653C344.92753623188406,457.54365994247223,349.8550724637682,457.7200655685111,354.7826086956522,457.85974043985135C359.71014492753625,457.9994153111916,364.63768115942025,458.10235942783333,369.5652173913043,458.1602949788014C374.4927536231883,458.21823052976947,379.42028985507244,458.2311575150639,384.3478260869565,458.27417119551114C389.27536231884056,458.3171848759584,394.2028985507247,458.3902852515583,399.13043478260875,458.41178647118886C404.0579710144928,458.43328769081944,408.9855072463768,458.40318975448054,413.9130434782608,458.45319228009447C418.84057971014494,458.50319480570835,423.768115942029,458.633297793275,428.695652173913,458.37937307358885C433.6231884057972,458.1254483539028,438.5507246376812,457.4874959269639,443.47826086956525,457.0584921648154C448.4057971014493,456.62948840266694,453.3333333333333,456.4094333053088,458.26086956521743,456.5984846862616C463.18840579710144,456.78753606721443,468.1159420289855,457.3856939264781,473.0434782608695,457.7354365215793C477.97101449275357,458.0851791166806,482.8985507246377,458.1865064476195,487.82608695652175,458.2380700101433C492.75362318840575,458.28963357266724,497.6811594202898,458.2914333667761,502.6086956521738,458.18064061401327C507.536231884058,458.0698478612503,512.463768115942,457.8464625616155,517.3913043478261,457.87853822890065C522.3188405797101,457.91061389618585,527.2463768115941,458.1981505303908,532.1739130434783,458.2527342371698C537.1014492753624,458.3073179439489,542.0289855072464,458.1289487233019,546.9565217391304,457.9311295698699C551.8840579710145,457.73331041643775,556.8115942028986,457.51604133022056,561.7391304347826,457.2690367516375C566.6666666666666,457.0220321730544,571.5942028985506,456.74529210210557,576.5217391304348,456.4462612388752C581.4492753623189,456.14723037564477,586.3768115942029,455.82590872013276,591.304347826087,455.5542991417721C596.231884057971,455.2826895634114,601.1594202898551,455.0607920622019,606.0869565217391,453.5014687665391C611.0144927536231,451.94214547087637,615.9420289855071,449.0453963807602,620.8695652173913,447.56846460291575C625.7971014492754,446.09153282507106,630.7246376811594,446.03441835949803,635.6521739130434,445.9435051028281C640.5797101449275,445.8525918461581,645.5072463768116,445.72787979839114,650.4347826086956,445.4822682039214C655.3623188405796,445.2366566094517,660.2898550724639,444.8701454682792,665.2173913043479,444.51223644227593C670.1449275362319,444.15432741627274,675.072463768116,443.8050205054389,677.536231884058,443.63036705002196L680,443.45571359460496L680,453.12309020227246L677.536231884058,453.06717350321446C675.072463768116,453.01125680415635,670.1449275362319,452.8994234060403,665.2173913043479,452.9607822143461C660.2898550724639,453.02214102265197,655.3623188405796,453.2566920373797,650.4347826086956,453.3476919426973C645.5072463768116,453.43869184801474,640.5797101449275,453.3861406439219,635.6521739130435,453.33091381180566C630.7246376811594,453.27568697968945,625.7971014492754,453.2177845195497,620.8695652173913,454.3288529462448C615.9420289855071,455.43992137294,611.0144927536231,457.71996068646996,606.0869565217391,458.859980343235C601.1594202898551,460,596.231884057971,460,591.304347826087,460C586.3768115942029,460,581.4492753623189,460,576.5217391304348,460C571.5942028985506,460,566.6666666666666,460,561.7391304347826,460C556.8115942028986,460,551.8840579710145,460,546.9565217391305,460C542.0289855072464,460,537.1014492753624,460,532.1739130434783,459.8299194753065C527.2463768115941,459.65983895061305,522.3188405797101,459.31967790122616,517.3913043478261,459.14119239109544C512.463768115942,458.96270688096473,507.536231884058,458.9458969100903,502.6086956521738,458.93432205924483C497.6811594202898,458.9227472083994,492.75362318840575,458.9164074775831,487.8260869565217,458.87344631443176C482.8985507246377,458.8304851512806,477.97101449275357,458.7509025557944,473.04347826086956,458.4669298825404C468.1159420289855,458.18295720928637,463.18840579710144,457.6945944582644,458.2608695652173,457.58270779821305C453.3333333333333,457.4708211381617,448.4057971014493,457.73541056908084,443.47826086956525,458.20103861787373C438.5507246376812,458.6666666666667,433.6231884057972,459.3333333333333,428.69565217391306,459.6666666666667C423.768115942029,460,418.84057971014494,460,413.9130434782608,460C408.9855072463768,460,404.0579710144928,460,399.13043478260875,460C394.2028985507247,460,389.27536231884056,460,384.3478260869565,460C379.42028985507244,460,374.4927536231883,460,369.5652173913043,460C364.63768115942025,460,359.71014492753625,460,354.7826086956522,460C349.8550724637682,460,344.92753623188406,460,340,460C335.07246376811594,460,330.1449275362319,460,325.2173913043478,460C320.28985507246375,460,315.3623188405797,460,310.4347826086956,460C305.50724637681157,460,300.57971014492756,460,295.65217391304344,460C290.72463768115944,460,285.7971014492754,460,280.8695652173913,460C275.94202898550725,460,271.0144927536232,460,266.0869565217391,458.75671265280556C261.15942028985506,457.51342530561107,256.231884057971,455.02685061122224,251.30434782608697,454.1001427153889C246.37681159420288,453.17343481955555,241.44927536231884,453.80659372227774,236.52173913043475,454.88321440280555C231.59420289855075,455.9598350833333,226.66666666666666,457.4799175416667,221.73913043478262,458.4066254375C216.8115942028986,459.3333333333333,211.8840579710145,459.6666666666667,206.95652173913047,452.7360461756944C202.02898550724638,445.8054256847222,197.10144927536234,431.61085136944445,192.17391304347825,428.48788664079166C187.24637681159422,425.3649219121389,182.31884057971016,433.3135667701111,177.3913043478261,439.4322213398889C172.46376811594203,445.55087590966673,167.53623188405797,449.83954019125,162.6086956521739,437.63944752498196C157.68115942028984,425.4393548587139,152.75362318840578,396.7505052445945,147.82608695652175,385.37407497123894C142.8985507246377,373.99764469788335,137.97101449275362,379.9336337652917,133.04347826086956,382.72928510680975C128.1159420289855,385.52493644832776,123.18840579710145,385.18025006395555,118.26086956521739,385.1580597698944C113.33333333333333,385.13586947583326,108.40579710144927,385.43617527208335,103.4782608695652,383.5679729611805C98.55072463768117,381.69977065027774,93.62318840579711,377.6630602322222,88.69565217391305,372.3650851259722C83.76811594202898,367.0671100197222,78.84057971014494,360.5078702252777,73.91304347826087,360.4435278051389C68.98550724637681,360.37918538499997,64.05797101449275,366.80974033916664,59.13043478260869,372.41971762512225C54.20289855072463,378.0296949110778,49.275362318840585,382.81909452882223,44.34782608695652,386.60784330020414C39.42028985507246,390.3965920715861,34.492753623188406,393.1846899966056,29.565217391304348,394.3206302971528C24.637681159420293,395.4565705977,19.71014492753623,394.940353273775,14.782608695652174,394.76548281972777C9.855072463768115,394.5906123656805,4.927536231884058,394.7570887815111,2.463768115942029,394.8403269894264L0,394.92356519734165Z"
             id="path6">
            <title
               id="title6">Vinyl</title>
          </path>
        </g>
        <g
           id="xAxis"
           transform="translate(0,460)"
           fill="none"
           font-size="10"
           font-family="sans-serif"
           text-anchor="middle">
          <path
             class="domain"
             stroke="currentColor"
             d="M0.5,0.5H680.5"
             id="path7" />
          <g
             class="tick"
             opacity="1"
             transform="translate(30.065217391304348,0)"
             id="g7">
            <line
               stroke="currentColor"
               y2="6"
               id="line7" />
            <text
               fill="currentColor"
               y="9"
               dy="0.71em"
               id="text7"
               style="-inkscape-font-specification:'sans-serif, Normal';font-family:sans-serif;font-weight:normal;font-style:normal;font-stretch:normal;font-variant:normal;font-size:10px;font-variant-ligatures:normal;font-variant-caps:normal;font-variant-numeric:normal;font-variant-east-asian:normal;fill:currentColor"><tspan
                 sodipodi:role="line"
                 id="tspan24">1975</tspan></text>
          </g>
          <g
             class="tick"
             opacity="1"
             transform="translate(103.97826086956522,0)"
             id="g8">
            <line
               stroke="currentColor"
               y2="6"
               id="line8" />
            <text
               fill="currentColor"
               y="9"
               dy="0.71em"
               id="text8"
               style="-inkscape-font-specification:'sans-serif, Normal';font-family:sans-serif;font-weight:normal;font-style:normal;font-stretch:normal;font-variant:normal;font-size:10px;font-variant-ligatures:normal;font-variant-caps:normal;font-variant-numeric:normal;font-variant-east-asian:normal;fill:currentColor"><tspan
                 sodipodi:role="line"
                 id="tspan25">1980</tspan></text>
          </g>
          <g
             class="tick"
             opacity="1"
             transform="translate(177.8913043478261,0)"
             id="g9">
            <line
               stroke="currentColor"
               y2="6"
               id="line9" />
            <text
               fill="currentColor"
               y="9"
               dy="0.71em"
               id="text9"
               style="-inkscape-font-specification:'sans-serif, Normal';font-family:sans-serif;font-weight:normal;font-style:normal;font-stretch:normal;font-variant:normal;font-size:10px;font-variant-ligatures:normal;font-variant-caps:normal;font-variant-numeric:normal;font-variant-east-asian:normal;fill:currentColor"><tspan
                 sodipodi:role="line"
                 id="tspan26">1985</tspan></text>
          </g>
          <g
             class="tick"
             opacity="1"
             transform="translate(251.80434782608694,0)"
             id="g10">
            <line
               stroke="currentColor"
               y2="6"
               id="line10" />
            <text
               fill="currentColor"
               y="9"
               dy="0.71em"
               id="text10"
               style="-inkscape-font-specification:'sans-serif, Normal';font-family:sans-serif;font-weight:normal;font-style:normal;font-stretch:normal;font-variant:normal;font-size:10px;font-variant-ligatures:normal;font-variant-caps:normal;font-variant-numeric:normal;font-variant-east-asian:normal;fill:currentColor"><tspan
                 sodipodi:role="line"
                 id="tspan27">1990</tspan></text>
          </g>
          <g
             class="tick"
             opacity="1"
             transform="translate(325.7173913043478,0)"
             id="g11">
            <line
               stroke="currentColor"
               y2="6"
               id="line11" />
            <text
               fill="currentColor"
               y="9"
               dy="0.71em"
               id="text11"
               style="-inkscape-font-specification:'sans-serif, Normal';font-family:sans-serif;font-weight:normal;font-style:normal;font-stretch:normal;font-variant:normal;font-size:10px;font-variant-ligatures:normal;font-variant-caps:normal;font-variant-numeric:normal;font-variant-east-asian:normal;fill:currentColor"><tspan
                 sodipodi:role="line"
                 id="tspan28">1995</tspan></text>
          </g>
          <g
             class="tick"
             opacity="1"
             transform="translate(399.63043478260875,0)"
             id="g12">
            <line
               stroke="currentColor"
               y2="6"
               id="line12" />
            <text
               fill="currentColor"
               y="9"
               dy="0.71em"
               id="text12"
               style="-inkscape-font-specification:'sans-serif, Normal';font-family:sans-serif;font-weight:normal;font-style:normal;font-stretch:normal;font-variant:normal;font-size:10px;font-variant-ligatures:normal;font-variant-caps:normal;font-variant-numeric:normal;font-variant-east-asian:normal;fill:currentColor"><tspan
                 sodipodi:role="line"
                 id="tspan29">2000</tspan></text>
          </g>
          <g
             class="tick"
             opacity="1"
             transform="translate(473.54347826086956,0)"
             id="g13">
            <line
               stroke="currentColor"
               y2="6"
               id="line13" />
            <text
               fill="currentColor"
               y="9"
               dy="0.71em"
               id="text13"
               style="-inkscape-font-specification:'sans-serif, Normal';font-family:sans-serif;font-weight:normal;font-style:normal;font-stretch:normal;font-variant:normal;font-size:10px;font-variant-ligatures:normal;font-variant-caps:normal;font-variant-numeric:normal;font-variant-east-asian:normal;fill:currentColor"><tspan
                 sodipodi:role="line"
                 id="tspan30">2005</tspan></text>
          </g>
          <g
             class="tick"
             opacity="1"
             transform="translate(547.4565217391305,0)"
             id="g14">
            <line
               stroke="currentColor"
               y2="6"
               id="line14" />
            <text
               fill="currentColor"
               y="9"
               dy="0.71em"
               id="text14"
               style="-inkscape-font-specification:'sans-serif, Normal';font-family:sans-serif;font-weight:normal;font-style:normal;font-stretch:normal;font-variant:normal;font-size:10px;font-variant-ligatures:normal;font-variant-caps:normal;font-variant-numeric:normal;font-variant-east-asian:normal;fill:currentColor"><tspan
                 sodipodi:role="line"
                 id="tspan31">2010</tspan></text>
          </g>
          <g
             class="tick"
             opacity="1"
             transform="translate(621.3695652173913,0)"
             id="g15">
            <line
               stroke="currentColor"
               y2="6"
               id="line15" />
            <text
               fill="currentColor"
               y="9"
               dy="0.71em"
               id="text15"
               style="-inkscape-font-specification:'sans-serif, Normal';font-family:sans-serif;font-weight:normal;font-style:normal;font-stretch:normal;font-variant:normal;font-size:10px;font-variant-ligatures:normal;font-variant-caps:normal;font-variant-numeric:normal;font-variant-east-asian:normal;fill:currentColor"><tspan
                 sodipodi:role="line"
                 id="tspan32">2015</tspan></text>
          </g>
        </g>
        <text
           y="456"
           x="680"
           text-anchor="end"
           style="font-family: Arial, sans-serif; font-size: 12px; fill: rgb(123, 123, 123); font-weight: bold;"
           id="text16">Year</text>
        <text
           x="4"
           text-anchor="start"
           dominant-baseline="hanging"
           style="font-family: Arial, sans-serif; font-size: 12px; fill: rgb(123, 123, 123); font-weight: bold;"
           id="text17">Revenues in millions (Adjusted for inflation)</text>
        <g
           id="labels">
          <text
             x="300.56302"
             y="204.12935"
             text-anchor="middle"
             alignment-baseline="middle"
             style="font-weight:bold;font-size:27.7043px;font-family:Arial, sans-serif;fill:#000000;stroke-width:2.77043"
             id="text18"
             transform="scale(0.70326635,1.4219364)">Tape</text>
          <text
             x="559.4151"
             y="197.85535"
             text-anchor="middle"
             alignment-baseline="middle"
             style="font-weight:bold;font-size:67.5539px;font-family:Arial, sans-serif;fill:#000000;stroke-width:6.75539"
             id="text19"
             transform="scale(0.70312343,1.4222254)">Disc</text>
          <text
             x="872.8028"
             y="251.0704"
             text-anchor="middle"
             alignment-baseline="middle"
             style="font-weight:bold;font-size:21.6197px;font-family:Arial, sans-serif;fill:#000000;stroke-width:2.16197"
             id="text20"
             transform="scale(0.60122085,1.6632823)">Download</text>
          <text
             x="458.26086"
             y="445.43384"
             text-anchor="middle"
             alignment-baseline="middle"
             style="font-weight:bold;font-size:10px;font-family:Arial, sans-serif;fill:#000000"
             id="text21">Other</text>
          <text
             x="1229.9795"
             y="188.84711"
             text-anchor="end"
             alignment-baseline="middle"
             style="font-weight:bold;font-size:18.249px;font-family:Arial, sans-serif;fill:#000000;stroke-width:1.8249"
             id="text22"
             transform="scale(0.54797661,1.8248954)">Streaming</text>
          <text
             x="87.283615"
             y="217.70628"
             text-anchor="middle"
             alignment-baseline="middle"
             style="font-weight:bold;font-size:43.9072px;font-family:Arial, sans-serif;fill:#000000;stroke-width:4.39072"
             id="text23"
             transform="scale(0.68973704,1.4498279)">Vinyl</text>
        </g>
      </g>
      <text
         x="4"
         y="4"
         style="font-family: Arial, sans-serif; font-size: 12px; fill: black; font-weight: bold; dominant-baseline: hanging;"
         id="text24" />
    </g>
  </g>
</svg>
