<?xml version="1.0" encoding="UTF-8" standalone="no"?>
<svg
   width="700"
   height="500"
   version="1.1"
   id="svg23"
   sodipodi:docname="bumpchart_units.svg"
   inkscape:version="1.4.2 (f4327f4, 2025-05-13)"
   xmlns:inkscape="http://www.inkscape.org/namespaces/inkscape"
   xmlns:sodipodi="http://sodipodi.sourceforge.net/DTD/sodipodi-0.dtd"
   xmlns="http://www.w3.org/2000/svg"
   xmlns:svg="http://www.w3.org/2000/svg">
  <defs
     id="defs23" />
  <sodipodi:namedview
     id="namedview23"
     pagecolor="#ffffff"
     bordercolor="#000000"
     borderopacity="0.25"
     inkscape:showpageshadow="2"
     inkscape:pageopacity="0.0"
     inkscape:pagecheckerboard="0"
     inkscape:deskcolor="#d1d1d1"
     inkscape:zoom="1.006"
     inkscape:cx="350.39761"
     inkscape:cy="250"
     inkscape:window-width="1366"
     inkscape:window-height="705"
     inkscape:window-x="-8"
     inkscape:window-y="-8"
     inkscape:window-maximized="1"
     inkscape:current-layer="svg23" />
  <rect
     width="700"
     height="500"
     x="0"
     y="0"
     fill="#FFFFFF"
     id="background" />
  <g
     id="viz">
    <g
       id="g23"
       transform="translate(0,0)">
      <g
         transform="translate(10,20)"
         id="g22">
        <g
           id="g6">
          <path
             fill="#9467bd"
             d="M0,435.114L2.463768115942029,434.8954999999999C4.927536231884058,434.67699999999996,9.855072463768115,434.24,14.782608695652174,434.0828333333333C19.71014492753623,433.9256666666667,24.637681159420293,434.04833333333335,29.565217391304348,433.48483333333337C34.492753623188406,432.9213333333333,39.42028985507246,431.6716666666666,44.34782608695652,429.68216666666666C49.275362318840585,427.69266666666664,54.20289855072463,424.96333333333337,59.130434782608695,422.4218333333333C64.05797101449275,419.88033333333334,68.98550724637681,417.52666666666664,73.91304347826087,416.89033333333333C78.84057971014494,416.25399999999996,83.76811594202898,417.33500000000004,88.69565217391305,417.7528333333333C93.62318840579711,418.17066666666665,98.55072463768117,417.92533333333336,103.47826086956523,418.186C108.40579710144927,418.4466666666667,113.33333333333333,419.21333333333337,118.26086956521738,418.55216666666666C123.18840579710145,417.891,128.1159420289855,415.80199999999996,133.04347826086956,413.19733333333335C137.97101449275362,410.5926666666667,142.8985507246377,407.4723333333333,147.82608695652172,402.0711666666666C152.75362318840578,396.67,157.68115942028984,388.988,162.6086956521739,373.03566666666666C167.53623188405797,357.0833333333333,172.46376811594203,332.8606666666667,177.3913043478261,322.0066666666667C182.31884057971016,311.1526666666667,187.24637681159422,313.6673333333334,192.17391304347825,311.49C197.10144927536234,309.3126666666667,202.02898550724638,302.4433333333333,206.9565217391304,296.70683333333335C211.8840579710145,290.9703333333334,216.8115942028986,286.3666666666666,221.73913043478262,282.33983333333333C226.66666666666666,278.313,231.59420289855075,274.863,236.52173913043478,270.884C241.44927536231884,266.90500000000003,246.37681159420288,262.397,251.3043478260869,262.6231666666667C256.231884057971,262.84933333333333,261.15942028985506,267.80966666666666,266.0869565217391,266.6673333333334C271.0144927536232,265.525,275.94202898550725,258.28,280.8695652173913,271.80966666666666C285.7971014492754,285.33933333333334,290.72463768115944,319.64366666666666,295.6521739130435,336.838C300.57971014492756,354.0323333333333,305.50724637681157,354.1166666666666,310.4347826086956,357.3405C315.3623188405797,360.5643333333333,320.28985507246375,366.92766666666665,325.2173913043478,372.14866666666666C330.1449275362319,377.36966666666666,335.07246376811594,381.4483333333333,340,386.2285C344.92753623188406,391.0086666666666,349.8550724637682,396.49033333333335,354.7826086956522,400.10133333333334C359.71014492753625,403.71233333333333,364.63768115942025,405.45266666666663,369.5652173913043,408.43499999999995C374.4927536231883,411.4173333333333,379.42028985507244,415.64166666666665,384.3478260869565,420.1803333333334C389.27536231884056,424.719,394.2028985507247,429.57199999999995,399.13043478260875,433.215085C404.0579710144928,436.85817,408.9855072463768,439.29134,413.9130434782608,441.212875C418.84057971014494,443.13440999999995,423.768115942029,444.54431,428.695652173913,446.39439166666665C433.6231884057972,448.24447333333336,438.5507246376812,450.5347366666667,443.47826086956525,452.3218683333334C448.4057971014493,454.109,453.3333333333333,455.39300000000003,458.26086956521743,456.493C463.18840579710144,457.593,468.1159420289855,458.509,473.0434782608695,459.036C477.97101449275357,459.56300000000005,482.8985507246377,459.701,487.82608695652175,459.7815C492.75362318840575,459.862,497.6811594202898,459.885,502.6086956521738,459.90799999999996C507.536231884058,459.93100000000004,512.463768115942,459.954,517.3913043478261,459.9693333333333C522.3188405797101,459.98466666666667,527.2463768115941,459.9923333333333,532.1739130434783,459.9961666666666C537.1014492753624,460,542.0289855072464,460,546.9565217391304,460C551.8840579710145,460,556.8115942028986,460,561.7391304347826,460C566.6666666666666,460,571.5942028985506,460,576.5217391304348,460C581.4492753623189,460,586.3768115942029,460,591.304347826087,460C596.231884057971,460,601.1594202898551,460,606.0869565217391,460C611.0144927536231,460,615.9420289855071,460,620.8695652173913,460C625.7971014492754,460,630.7246376811594,460,635.6521739130434,460C640.5797101449275,460,645.5072463768116,460,650.4347826086956,460C655.3623188405796,460,660.2898550724639,460,665.2173913043479,460C670.1449275362319,460,675.072463768116,460,677.536231884058,460L680,460L680,460L677.536231884058,460C675.072463768116,460,670.1449275362319,460,665.2173913043479,460C660.2898550724639,460,655.3623188405796,460,650.4347826086956,460C645.5072463768116,460,640.5797101449275,460,635.6521739130435,460C630.7246376811594,460,625.7971014492754,460,620.8695652173913,460C615.9420289855071,460,611.0144927536231,460,606.0869565217391,460C601.1594202898551,460,596.231884057971,460,591.304347826087,460C586.3768115942029,460,581.4492753623189,460,576.5217391304348,460C571.5942028985506,460,566.6666666666666,460,561.7391304347826,460C556.8115942028986,460,551.8840579710145,460,546.9565217391305,460C542.0289855072464,460,537.1014492753624,460,532.1739130434783,460C527.2463768115941,460,522.3188405797101,460,517.3913043478261,460C512.463768115942,460,507.536231884058,460,502.6086956521738,460C497.6811594202898,460,492.75362318840575,460,487.8260869565217,460C482.8985507246377,460,477.97101449275357,460,473.04347826086956,459.6455C468.1159420289855,459.291,463.18840579710144,458.58200000000005,458.2608695652173,458.0455C453.3333333333333,457.509,448.4057971014493,457.145,443.47826086956525,456.35070166666674C438.5507246376812,455.5564033333333,433.6231884057972,454.33180666666664,428.69565217391306,453.54739166666667C423.768115942029,452.76297666666665,418.84057971014494,452.41874333333334,413.9130434782608,452.2682083333334C408.9855072463768,452.11767333333336,404.0579710144928,452.1608366666666,399.13043478260875,452.07508499999994C394.2028985507247,451.98933333333326,389.27536231884056,451.7746666666667,384.3478260869565,451.36066666666665C379.42028985507244,450.94666666666666,374.4927536231883,450.3333333333333,369.5652173913043,450.3026666666667C364.63768115942025,450.272,359.71014492753625,450.824,354.7826086956522,451.05783333333335C349.8550724637682,451.2916666666667,344.92753623188406,451.20733333333334,340,451.353C335.07246376811594,451.4986666666667,330.1449275362319,451.87433333333337,325.2173913043478,452.0698333333333C320.28985507246375,452.26533333333333,315.3623188405797,452.2806666666667,310.4347826086956,452.19250000000005C305.50724637681157,452.1043333333334,300.57971014492756,451.91266666666667,295.65217391304344,435.65749999999997C290.72463768115944,419.4023333333333,285.7971014492754,387.08366666666666,280.8695652173913,373.70733333333334C275.94202898550725,360.33099999999996,271.0144927536232,365.897,266.0869565217391,370.05233333333337C261.15942028985506,374.2076666666667,256.231884057971,376.95233333333334,251.30434782608697,380.30266666666665C246.37681159420288,383.653,241.44927536231884,387.609,236.52173913043475,389.40299999999996C231.59420289855075,391.19699999999995,226.66666666666666,390.829,221.73913043478262,390.7426666666667C216.8115942028986,390.65633333333335,211.8840579710145,390.85166666666663,206.95652173913047,391.67766666666665C202.02898550724638,392.5036666666667,197.10144927536234,393.96033333333327,192.17391304347825,393.22433333333333C187.24637681159422,392.4883333333333,182.31884057971016,389.5596666666666,177.3913043478261,399.9345C172.46376811594203,410.3093333333333,167.53623188405797,433.98766666666666,162.6086956521739,446.01849999999996C157.68115942028984,458.0493333333334,152.75362318840578,458.43266666666665,147.82608695652175,458.65500000000003C142.8985507246377,458.87733333333335,137.97101449275362,458.9386666666667,133.04347826086956,459.13599999999997C128.1159420289855,459.3333333333333,123.18840579710145,459.6666666666667,118.26086956521739,459.8333333333333C113.33333333333333,460,108.40579710144927,460,103.4782608695652,460C98.55072463768117,460,93.62318840579711,460,88.69565217391305,460C83.76811594202898,460,78.84057971014494,460,73.91304347826087,460C68.98550724637681,460,64.05797101449275,460,59.13043478260869,460C54.20289855072463,460,49.275362318840585,460,44.34782608695652,460C39.42028985507246,460,34.492753623188406,460,29.565217391304348,460C24.637681159420293,460,19.71014492753623,460,14.782608695652174,460C9.855072463768115,460,4.927536231884058,460,2.463768115942029,460L0,460Z"
             id="path1">
            <title
               id="title1">Tape</title>
          </path>
          <path
             fill="#1f77b4"
             d="M0,460L2.463768115942029,460C4.927536231884058,460,9.855072463768115,460,14.782608695652174,460C19.71014492753623,460,24.637681159420293,460,29.565217391304348,460C34.492753623188406,460,39.42028985507246,460,44.34782608695652,460C49.275362318840585,460,54.20289855072463,460,59.130434782608695,460C64.05797101449275,460,68.98550724637681,460,73.91304347826087,460C78.84057971014494,460,83.76811594202898,460,88.69565217391305,460C93.62318840579711,460,98.55072463768117,460,103.47826086956523,460C108.40579710144927,460,113.33333333333333,460,118.26086956521738,460C123.18840579710145,460,128.1159420289855,460,133.04347826086956,459.9693333333333C137.97101449275362,459.9386666666667,142.8985507246377,459.87733333333335,147.82608695652172,459.65500000000003C152.75362318840578,459.43266666666665,157.68115942028984,459.0493333333334,162.6086956521739,458.2136666666667C167.53623188405797,457.378,172.46376811594203,456.09,177.3913043478261,454.2806666666667C182.31884057971016,452.47133333333335,187.24637681159422,450.1406666666667,192.17391304347825,447.0931666666666C197.10144927536234,444.04566666666665,202.02898550724638,440.28133333333335,206.9565217391304,430.88983333333334C211.8840579710145,421.4983333333333,216.8115942028986,406.4796666666667,221.73913043478262,399.15433333333334C226.66666666666666,391.829,231.59420289855075,392.19699999999995,236.52173913043478,390.403C241.44927536231884,388.609,246.37681159420288,384.653,251.3043478260869,381.3026666666667C256.231884057971,377.95233333333334,261.15942028985506,375.2076666666667,266.0869565217391,371.0523333333333C271.0144927536232,366.897,275.94202898550725,361.33099999999996,280.8695652173913,338.78916666666663C285.7971014492754,316.2473333333333,290.72463768115944,276.7296666666667,295.6521739130435,250.5653333333333C300.57971014492756,224.40099999999998,305.50724637681157,211.59,310.4347826086956,205.5678333333333C315.3623188405797,199.54566666666665,320.28985507246375,200.31233333333333,325.2173913043478,199.7565C330.1449275362319,199.2006666666667,335.07246376811594,197.32233333333338,340,199.21216666666666C344.92753623188406,201.102,349.8550724637682,206.76,354.7826086956522,207.2698333333333C359.71014492753625,207.77966666666666,364.63768115942025,203.14133333333334,369.5652173913043,199.41533333333334C374.4927536231883,195.68933333333334,379.42028985507244,192.8756666666667,384.3478260869565,194.58916666666673C389.27536231884056,196.3026666666667,394.2028985507247,202.54333333333338,399.13043478260875,209.851085C404.0579710144928,217.1588366666667,408.9855072463768,225.53367333333335,413.9130434782608,233.92970833333337C418.84057971014494,242.32574333333335,423.768115942029,250.74297666666666,428.695652173913,257.1528916666667C433.6231884057972,263.56280666666663,438.5507246376812,267.9654033333333,443.47826086956525,264.04486833333334C448.4057971014493,260.12433333333337,453.3333333333333,247.88066666666668,458.26086956521743,228.57983333333334C463.18840579710144,209.279,468.1159420289855,182.92100000000005,473.0434782608695,194.91733333333335C477.97101449275357,206.91366666666667,482.8985507246377,257.2643333333333,487.82608695652175,286.85566666666665C492.75362318840575,316.44699999999995,497.6811594202898,325.279,502.6086956521738,335.32463333333334C507.536231884058,345.3702666666666,512.463768115942,356.6295333333334,517.3913043478261,365.2103666666667C522.3188405797101,373.79120000000006,527.2463768115941,379.69360000000006,532.1739130434783,384.38360000000006C537.1014492753624,389.0736,542.0289855072464,392.55120000000005,546.9565217391304,394.76265000000006C551.8840579710145,396.9741000000001,556.8115942028986,397.9194,561.7391304347826,400.02148610802493C566.6666666666666,402.12357221605,571.5942028985506,405.38244443209993,576.5217391304348,407.8517700201699C581.4492753623189,410.32109560824,586.3768115942029,412.00087456832995,591.304347826087,414.24033453221335C596.231884057971,416.47979449609664,601.1594202898551,419.2789354637733,606.0869565217391,421.40321968504C611.0144927536231,423.52750390630666,615.9420289855071,424.9769313811633,620.8695652173913,426.4693538241401C625.7971014492754,427.9617762671167,630.7246376811594,429.4971936782133,635.6521739130434,430.65520335741166C640.5797101449275,431.81321303660997,645.5072463768116,432.59381498391,650.4347826086956,434.3433319549283C655.3623188405796,436.0928489259466,660.2898550724639,438.8112809206834,665.2173913043479,440.29966587661494C670.1449275362319,441.7880508325466,675.072463768116,442.0463887496733,677.536231884058,442.1755577082367L680,442.3047266668L680,453.01132028485L677.536231884058,453.09135651580164C675.072463768116,453.1713927467533,670.1449275362319,453.33146520865665,665.2173913043479,453.4261494977167C660.2898550724639,453.5208337867766,655.3623188405796,453.5501299029934,650.4347826086956,453.5538321968933C645.5072463768116,453.55753449079333,640.5797101449275,453.53564296237664,635.6521739130435,453.5170740124266C630.7246376811594,453.4985050624766,625.7971014492754,453.48325869099335,620.8695652173913,453.5976732136883C615.9420289855071,453.71208773638335,611.0144927536231,453.9561631532567,606.0869565217391,454.0128338044983C601.1594202898551,454.06950445573995,596.231884057971,453.93877034134994,591.304347826087,453.9855536592883C586.3768115942029,454.03233697722663,581.4492753623189,454.25663772749334,576.5217391304348,454.3837483563334C571.5942028985506,454.51085898517334,566.6666666666666,454.54077949258664,561.7391304347826,454.53925641296C556.8115942028986,454.53773333333334,551.8840579710145,454.5047666666667,546.9565217391305,454.41698333333335C542.0289855072464,454.32919999999996,537.1014492753624,454.1866,532.1739130434783,453.9087666666666C527.2463768115941,453.63093333333336,522.3188405797101,453.2178666666667,517.3913043478261,452.4915333333334C512.463768115942,451.76520000000005,507.536231884058,450.7256,502.6086956521738,450.3591333333334C497.6811594202898,449.9926666666667,492.75362318840575,450.2993333333333,487.8260869565217,428.6123333333333C482.8985507246377,406.92533333333336,477.97101449275357,363.24466666666666,473.04347826086956,356.9676666666667C468.1159420289855,350.6906666666667,463.18840579710144,381.81733333333335,458.2608695652173,402.916C453.3333333333333,424.0146666666667,448.4057971014493,435.0853333333334,443.47826086956525,440.42036833333333C438.5507246376812,445.75540333333333,433.6231884057972,445.35480666666666,428.69565217391306,444.4495583333333C423.768115942029,443.54431,418.84057971014494,442.13440999999995,413.9130434782608,440.212875C408.9855072463768,438.29134,404.0579710144928,435.85817,399.13043478260875,432.215085C394.2028985507247,428.57199999999995,389.27536231884056,423.719,384.3478260869565,419.1803333333334C379.42028985507244,414.64166666666665,374.4927536231883,410.4173333333333,369.5652173913043,407.43499999999995C364.63768115942025,404.45266666666663,359.71014492753625,402.71233333333333,354.7826086956522,399.1013333333333C349.8550724637682,395.49033333333335,344.92753623188406,390.0086666666666,340,385.2285C335.07246376811594,380.4483333333333,330.1449275362319,376.36966666666666,325.2173913043478,371.14866666666666C320.28985507246375,365.92766666666665,315.3623188405797,359.5643333333333,310.4347826086956,356.34049999999996C305.50724637681157,353.1166666666666,300.57971014492756,353.0323333333333,295.65217391304344,369.36033333333336C290.72463768115944,385.68833333333333,285.7971014492754,418.4286666666667,280.8695652173913,434.67616666666663C275.94202898550725,450.92366666666663,271.0144927536232,450.6783333333333,266.0869565217391,449.9576666666667C261.15942028985506,449.237,256.231884057971,448.041,251.30434782608697,446.339C246.37681159420288,444.637,241.44927536231884,442.4289999999999,236.52173913043475,438.9981666666667C231.59420289855075,435.56733333333335,226.66666666666666,430.91366666666664,221.73913043478262,434.2101666666667C216.8115942028986,437.50666666666666,211.8840579710145,448.75333333333333,206.95652173913047,454.3766666666667C202.02898550724638,460,197.10144927536234,460,192.17391304347825,460C187.24637681159422,460,182.31884057971016,460,177.3913043478261,460C172.46376811594203,460,167.53623188405797,460,162.6086956521739,460C157.68115942028984,460,152.75362318840578,460,147.82608695652175,460C142.8985507246377,460,137.97101449275362,460,133.04347826086956,460C128.1159420289855,460,123.18840579710145,460,118.26086956521739,460C113.33333333333333,460,108.40579710144927,460,103.4782608695652,460C98.55072463768117,460,93.62318840579711,460,88.69565217391305,460C83.76811594202898,460,78.84057971014494,460,73.91304347826087,460C68.98550724637681,460,64.05797101449275,460,59.13043478260869,460C54.20289855072463,460,49.275362318840585,460,44.34782608695652,460C39.42028985507246,460,34.492753623188406,460,29.565217391304348,460C24.637681159420293,460,19.71014492753623,460,14.782608695652174,460C9.855072463768115,460,4.927536231884058,460,2.463768115942029,460L0,460Z"
             id="path2">
            <title
               id="title2">Disc</title>
          </path>
          <path
             fill="#ff7f0e"
             d="M0,460L2.463768115942029,460C4.927536231884058,460,9.855072463768115,460,14.782608695652174,460C19.71014492753623,460,24.637681159420293,460,29.565217391304348,460C34.492753623188406,460,39.42028985507246,460,44.34782608695652,460C49.275362318840585,460,54.20289855072463,460,59.130434782608695,460C64.05797101449275,460,68.98550724637681,460,73.91304347826087,460C78.84057971014494,460,83.76811594202898,460,88.69565217391305,460C93.62318840579711,460,98.55072463768117,460,103.47826086956523,460C108.40579710144927,460,113.33333333333333,460,118.26086956521738,459.8333333333333C123.18840579710145,459.6666666666667,128.1159420289855,459.3333333333333,133.04347826086956,459.3333333333333C137.97101449275362,459.3333333333333,142.8985507246377,459.6666666666667,147.82608695652172,459.8333333333333C152.75362318840578,460,157.68115942028984,460,162.6086956521739,460C167.53623188405797,460,172.46376811594203,460,177.3913043478261,460C182.31884057971016,460,187.24637681159422,460,192.17391304347825,460C197.10144927536234,460,202.02898550724638,460,206.9565217391304,460C211.8840579710145,460,216.8115942028986,460,221.73913043478262,460C226.66666666666666,460,231.59420289855075,460,236.52173913043478,460C241.44927536231884,460,246.37681159420288,460,251.3043478260869,460C256.231884057971,460,261.15942028985506,460,266.0869565217391,460C271.0144927536232,460,275.94202898550725,460,280.8695652173913,460C285.7971014492754,460,290.72463768115944,460,295.6521739130435,460C300.57971014492756,460,305.50724637681157,460,310.4347826086956,460C315.3623188405797,460,320.28985507246375,460,325.2173913043478,460C330.1449275362319,460,335.07246376811594,460,340,460C344.92753623188406,460,349.8550724637682,460,354.7826086956522,460C359.71014492753625,460,364.63768115942025,460,369.5652173913043,460C374.4927536231883,460,379.42028985507244,460,384.3478260869565,460C389.27536231884056,460,394.2028985507247,460,399.13043478260875,460C404.0579710144928,460,408.9855072463768,460,413.9130434782608,460C418.84057971014494,460,423.768115942029,460,428.695652173913,460C433.6231884057972,460,438.5507246376812,460,443.47826086956525,452.324C448.4057971014493,444.64799999999997,453.3333333333333,429.296,458.26086956521743,406.0566666666666C463.18840579710144,382.81733333333335,468.1159420289855,351.6906666666667,473.0434782608695,297.8113333333333C477.97101449275357,243.932,482.8985507246377,167.29999999999995,487.82608695652175,118.89849999999996C492.75362318840575,70.49699999999996,497.6811594202898,50.325999999999986,502.6086956521738,37.62846666666667C507.536231884058,24.930933333333343,512.463768115942,19.70686666666667,517.3913043478261,20.755199999999984C522.3188405797101,21.803533333333295,527.2463768115941,29.124266666666596,532.1739130434783,36.1947666666666C537.1014492753624,43.265266666666605,542.0289855072464,50.08553333333331,546.9565217391304,50.21931666666666C551.8840579710145,50.353100000000005,556.8115942028986,43.80039999999997,561.7391304347826,41.35600337589164C566.6666666666666,38.911606751783296,571.5942028985506,40.57551350356665,576.5217391304348,45.70313007173666C581.4492753623189,50.83074663990666,586.3768115942029,59.42207302446331,591.304347826087,72.64936638014665C596.231884057971,85.87665973582996,601.1594202898551,103.73992006264,606.0869565217391,120.44490738014667C611.0144927536231,137.14989469765334,615.9420289855071,152.6966090058567,620.8695652173913,171.40728336525333C625.7971014492754,190.11795772464998,630.7246376811594,211.99259213524002,635.6521739130434,231.65111548903337C640.5797101449275,251.30963884282673,645.5072463768116,268.7520511398234,650.4347826086956,285.5375086642417C655.3623188405796,302.32296618866,660.2898550724639,318.45146894050004,665.2173913043479,329.54171042570005C670.1449275362319,340.6319519109,675.072463768116,346.68393212946006,677.536231884058,349.7099222387401L680,352.73591234802007L680,441.3047266668L677.536231884058,441.1755577082367C675.072463768116,441.0463887496733,670.1449275362319,440.7880508325466,665.2173913043479,439.29966587661494C660.2898550724639,437.8112809206834,655.3623188405796,435.0928489259466,650.4347826086956,433.3433319549284C645.5072463768116,431.59381498391,640.5797101449275,430.81321303660997,635.6521739130435,429.65520335741166C630.7246376811594,428.4971936782133,625.7971014492754,426.9617762671167,620.8695652173913,425.46935382414C615.9420289855071,423.9769313811633,611.0144927536231,422.52750390630666,606.0869565217391,420.40321968504C601.1594202898551,418.2789354637733,596.231884057971,415.47979449609664,591.304347826087,413.24033453221335C586.3768115942029,411.00087456832995,581.4492753623189,409.32109560824,576.5217391304348,406.8517700201699C571.5942028985506,404.38244443209993,566.6666666666666,401.12357221605,561.7391304347826,399.02148610802504C556.8115942028986,396.9194,551.8840579710145,395.9741000000001,546.9565217391305,393.76265000000006C542.0289855072464,391.55120000000005,537.1014492753624,388.0736,532.1739130434783,383.38360000000006C527.2463768115941,378.69360000000006,522.3188405797101,372.79120000000006,517.3913043478261,364.2103666666667C512.463768115942,355.6295333333334,507.536231884058,344.3702666666666,502.6086956521738,334.32463333333334C497.6811594202898,324.279,492.75362318840575,315.44699999999995,487.8260869565217,334.53116666666665C482.8985507246377,353.61533333333335,477.97101449275357,400.61566666666664,473.04347826086956,424.02383333333324C468.1159420289855,447.432,463.18840579710144,447.24800000000005,458.2608695652173,449.31200000000007C453.3333333333333,451.37600000000003,448.4057971014493,455.68800000000005,443.47826086956525,457.844C438.5507246376812,460,433.6231884057972,460,428.69565217391306,460C423.768115942029,460,418.84057971014494,460,413.9130434782608,460C408.9855072463768,460,404.0579710144928,460,399.13043478260875,460C394.2028985507247,460,389.27536231884056,460,384.3478260869565,460C379.42028985507244,460,374.4927536231883,460,369.5652173913043,460C364.63768115942025,460,359.71014492753625,460,354.7826086956522,460C349.8550724637682,460,344.92753623188406,460,340,460C335.07246376811594,460,330.1449275362319,460,325.2173913043478,460C320.28985507246375,460,315.3623188405797,460,310.4347826086956,460C305.50724637681157,460,300.57971014492756,460,295.65217391304344,460C290.72463768115944,460,285.7971014492754,460,280.8695652173913,460C275.94202898550725,460,271.0144927536232,460,266.0869565217391,460C261.15942028985506,460,256.231884057971,460,251.30434782608697,460C246.37681159420288,460,241.44927536231884,460,236.52173913043475,460C231.59420289855075,460,226.66666666666666,460,221.73913043478262,460C216.8115942028986,460,211.8840579710145,460,206.95652173913047,460C202.02898550724638,460,197.10144927536234,460,192.17391304347825,460C187.24637681159422,460,182.31884057971016,460,177.3913043478261,460C172.46376811594203,460,167.53623188405797,460,162.6086956521739,460C157.68115942028984,460,152.75362318840578,460,147.82608695652175,459.8333333333333C142.8985507246377,459.6666666666667,137.97101449275362,459.3333333333333,133.04347826086956,459.3333333333333C128.1159420289855,459.3333333333333,123.18840579710145,459.6666666666667,118.26086956521739,459.8333333333333C113.33333333333333,460,108.40579710144927,460,103.4782608695652,460C98.55072463768117,460,93.62318840579711,460,88.69565217391305,460C83.76811594202898,460,78.84057971014494,460,73.91304347826087,460C68.98550724637681,460,64.05797101449275,460,59.13043478260869,460C54.20289855072463,460,49.275362318840585,460,44.34782608695652,460C39.42028985507246,460,34.492753623188406,460,29.565217391304348,460C24.637681159420293,460,19.71014492753623,460,14.782608695652174,460C9.855072463768115,460,4.927536231884058,460,2.463768115942029,460L0,460Z"
             id="path3">
            <title
               id="title3">Download</title>
          </path>
          <path
             fill="#2ca02c"
             d="M0,460L2.463768115942029,460C4.927536231884058,460,9.855072463768115,460,14.782608695652174,460C19.71014492753623,460,24.637681159420293,460,29.565217391304348,460C34.492753623188406,460,39.42028985507246,460,44.34782608695652,460C49.275362318840585,460,54.20289855072463,460,59.130434782608695,460C64.05797101449275,460,68.98550724637681,460,73.91304347826087,460C78.84057971014494,460,83.76811594202898,460,88.69565217391305,460C93.62318840579711,460,98.55072463768117,460,103.47826086956523,460C108.40579710144927,460,113.33333333333333,460,118.26086956521738,459.8333333333333C123.18840579710145,459.6666666666667,128.1159420289855,459.3333333333333,133.04347826086956,459.3333333333333C137.97101449275362,459.3333333333333,142.8985507246377,459.6666666666667,147.82608695652172,459.8333333333333C152.75362318840578,460,157.68115942028984,460,162.6086956521739,460C167.53623188405797,460,172.46376811594203,460,177.3913043478261,460C182.31884057971016,460,187.24637681159422,460,192.17391304347825,460C197.10144927536234,460,202.02898550724638,460,206.9565217391304,460C211.8840579710145,460,216.8115942028986,460,221.73913043478262,459.7661666666666C226.66666666666666,459.5323333333333,231.59420289855075,459.06466666666665,236.52173913043478,458.712C241.44927536231884,458.3593333333333,246.37681159420288,458.1216666666666,251.3043478260869,458.1216666666666C256.231884057971,458.1216666666666,261.15942028985506,458.3593333333333,266.0869565217391,458.42066666666665C271.0144927536232,458.48199999999997,275.94202898550725,458.367,280.8695652173913,458.1791666666666C285.7971014492754,457.9913333333334,290.72463768115944,457.73066666666665,295.6521739130435,457.5926666666667C300.57971014492756,457.4546666666667,305.50724637681157,457.4393333333333,310.4347826086956,456.73600000000005C315.3623188405797,456.03266666666667,320.28985507246375,454.6413333333333,325.2173913043478,453.75783333333334C330.1449275362319,452.87433333333337,335.07246376811594,452.4986666666667,340,452.35300000000007C344.92753623188406,452.20733333333334,349.8550724637682,452.2916666666667,354.7826086956522,452.0578333333333C359.71014492753625,451.824,364.63768115942025,451.272,369.5652173913043,451.30266666666665C374.4927536231883,451.3333333333333,379.42028985507244,451.94666666666666,384.3478260869565,452.36066666666665C389.27536231884056,452.7746666666667,394.2028985507247,452.98933333333326,399.13043478260875,453.07508499999994C404.0579710144928,453.1608366666666,408.9855072463768,453.11767333333336,413.9130434782608,453.2682083333334C418.84057971014494,453.41874333333334,423.768115942029,453.76297666666665,428.695652173913,452.7765583333333C433.6231884057972,451.79014,438.5507246376812,449.47307,443.47826086956525,448.4658683333333C448.4057971014493,447.45866666666666,453.3333333333333,447.76133333333337,458.26086956521743,448.0046666666667C463.18840579710144,448.24800000000005,468.1159420289855,448.432,473.0434782608695,449.02233333333334C477.97101449275357,449.61266666666666,482.8985507246377,450.6093333333333,487.82608695652175,450.95433333333335C492.75362318840575,451.2993333333333,497.6811594202898,450.9926666666667,502.6086956521738,451.3591333333333C507.536231884058,451.7256,512.463768115942,452.76520000000005,517.3913043478261,453.49153333333334C522.3188405797101,454.2178666666667,527.2463768115941,454.63093333333336,532.1739130434783,454.9087666666666C537.1014492753624,455.1866,542.0289855072464,455.32919999999996,546.9565217391304,455.41698333333335C551.8840579710145,455.5047666666667,556.8115942028986,455.53773333333334,561.7391304347826,455.53925641296C566.6666666666666,455.54077949258664,571.5942028985506,455.51085898517334,576.5217391304348,455.9209873017533C581.4492753623189,456.3311156183333,586.3768115942029,457.18129275890664,591.304347826087,457.7150519915083C596.231884057971,458.24881122410994,601.1594202898551,458.46615254873996,606.0869565217391,458.582817437895C611.0144927536231,458.69948232704996,615.9420289855071,458.71547078072996,620.8695652173913,458.7688970136C625.7971014492754,458.82232324647,630.7246376811594,458.91318725852994,635.6521739130434,458.999611916505C640.5797101449275,459.08603657448,645.5072463768116,459.16802187837,650.4347826086956,459.2348941510916C655.3623188405796,459.3017664238134,660.2898550724639,459.3535256653666,665.2173913043479,459.39225037632167C670.1449275362319,459.4309750872767,675.072463768116,459.45666526763335,677.536231884058,459.46951035781166L680,459.48235544799L680,460L677.536231884058,460C675.072463768116,460,670.1449275362319,460,665.2173913043479,460C660.2898550724639,460,655.3623188405796,460,650.4347826086956,460C645.5072463768116,460,640.5797101449275,460,635.6521739130435,460C630.7246376811594,460,625.7971014492754,460,620.8695652173913,460C615.9420289855071,460,611.0144927536231,460,606.0869565217391,460C601.1594202898551,460,596.231884057971,460,591.304347826087,459.5533490097534C586.3768115942029,459.10669801950667,581.4492753623189,458.21339603901333,576.5217391304348,457.82056270568C571.5942028985506,457.4277293723467,566.6666666666666,457.5353646861733,561.7391304347826,457.6428490097533C556.8115942028986,457.75033333333334,551.8840579710145,457.8576666666667,546.9565217391305,457.93816666666663C542.0289855072464,458.01866666666666,537.1014492753624,458.07233333333335,532.1739130434783,457.94783333333334C527.2463768115941,457.8233333333333,522.3188405797101,457.5206666666666,517.3913043478261,457.4115C512.463768115942,457.3023333333333,507.536231884058,457.3866666666666,502.6086956521738,457.3981666666666C497.6811594202898,457.4096666666666,492.75362318840575,457.3483333333333,487.8260869565217,457.21416666666664C482.8985507246377,457.08,477.97101449275357,456.873,473.04347826086956,456.6046666666667C468.1159420289855,456.33633333333336,463.18840579710144,456.00666666666666,458.2608695652173,455.19983333333334C453.3333333333333,454.39300000000003,448.4057971014493,453.109,443.47826086956525,453.42735166666665C438.5507246376812,453.7457033333333,433.6231884057972,455.66640666666666,428.69565217391306,456.56324C423.768115942029,457.46007333333336,418.84057971014494,457.33303666666666,413.9130434782608,457.300185C408.9855072463768,457.2673333333334,404.0579710144928,457.3286666666667,399.13043478260875,457.31333333333333C394.2028985507247,457.298,389.27536231884056,457.20599999999996,384.3478260869565,457.137C379.42028985507244,457.068,374.4927536231883,457.022,369.5652173913043,456.94533333333334C364.63768115942025,456.8686666666667,359.71014492753625,456.76133333333337,354.7826086956522,456.60033333333337C349.8550724637682,456.4393333333333,344.92753623188406,456.2246666666667,340,456.14033333333344C335.07246376811594,456.05600000000004,330.1449275362319,456.10200000000003,325.2173913043478,456.767C320.28985507246375,457.43199999999996,315.3623188405797,458.71599999999995,310.4347826086956,459.358C305.50724637681157,460,300.57971014492756,460,295.65217391304344,460C290.72463768115944,460,285.7971014492754,460,280.8695652173913,460C275.94202898550725,460,271.0144927536232,460,266.0869565217391,460C261.15942028985506,460,256.231884057971,460,251.30434782608697,460C246.37681159420288,460,241.44927536231884,460,236.52173913043475,460C231.59420289855075,460,226.66666666666666,460,221.73913043478262,460C216.8115942028986,460,211.8840579710145,460,206.95652173913047,460C202.02898550724638,460,197.10144927536234,460,192.17391304347825,460C187.24637681159422,460,182.31884057971016,460,177.3913043478261,460C172.46376811594203,460,167.53623188405797,460,162.6086956521739,460C157.68115942028984,460,152.75362318840578,460,147.82608695652175,459.8333333333333C142.8985507246377,459.6666666666667,137.97101449275362,459.3333333333333,133.04347826086956,459.3333333333333C128.1159420289855,459.3333333333333,123.18840579710145,459.6666666666667,118.26086956521739,459.8333333333333C113.33333333333333,460,108.40579710144927,460,103.4782608695652,460C98.55072463768117,460,93.62318840579711,460,88.69565217391305,460C83.76811594202898,460,78.84057971014494,460,73.91304347826087,460C68.98550724637681,460,64.05797101449275,460,59.13043478260869,460C54.20289855072463,460,49.275362318840585,460,44.34782608695652,460C39.42028985507246,460,34.492753623188406,460,29.565217391304348,460C24.637681159420293,460,19.71014492753623,460,14.782608695652174,460C9.855072463768115,460,4.927536231884058,460,2.463768115942029,460L0,460Z"
             id="path4">
            <title
               id="title4">Other</title>
          </path>
          <path
             fill="#d62728"
             d="M0,460L2.463768115942029,460C4.927536231884058,460,9.855072463768115,460,14.782608695652174,460C19.71014492753623,460,24.637681159420293,460,29.565217391304348,460C34.492753623188406,460,39.42028985507246,460,44.34782608695652,460C49.275362318840585,460,54.20289855072463,460,59.130434782608695,460C64.05797101449275,460,68.98550724637681,460,73.91304347826087,460C78.84057971014494,460,83.76811594202898,460,88.69565217391305,460C93.62318840579711,460,98.55072463768117,460,103.47826086956523,460C108.40579710144927,460,113.33333333333333,460,118.26086956521738,459.8333333333333C123.18840579710145,459.6666666666667,128.1159420289855,459.3333333333333,133.04347826086956,459.3333333333333C137.97101449275362,459.3333333333333,142.8985507246377,459.6666666666667,147.82608695652172,459.8333333333333C152.75362318840578,460,157.68115942028984,460,162.6086956521739,460C167.53623188405797,460,172.46376811594203,460,177.3913043478261,460C182.31884057971016,460,187.24637681159422,460,192.17391304347825,460C197.10144927536234,460,202.02898550724638,460,206.9565217391304,459.8333333333333C211.8840579710145,459.6666666666667,216.8115942028986,459.3333333333333,221.73913043478262,459.3333333333333C226.66666666666666,459.3333333333333,231.59420289855075,459.6666666666667,236.52173913043478,459.8333333333333C241.44927536231884,460,246.37681159420288,460,251.3043478260869,460C256.231884057971,460,261.15942028985506,460,266.0869565217391,460C271.0144927536232,460,275.94202898550725,460,280.8695652173913,460C285.7971014492754,460,290.72463768115944,460,295.6521739130435,460C300.57971014492756,460,305.50724637681157,460,310.4347826086956,460C315.3623188405797,460,320.28985507246375,460,325.2173913043478,460C330.1449275362319,460,335.07246376811594,460,340,460C344.92753623188406,460,349.8550724637682,460,354.7826086956522,460C359.71014492753625,460,364.63768115942025,460,369.5652173913043,460C374.4927536231883,460,379.42028985507244,460,384.3478260869565,460C389.27536231884056,460,394.2028985507247,460,399.13043478260875,460C404.0579710144928,460,408.9855072463768,460,413.9130434782608,460C418.84057971014494,460,423.768115942029,460,428.695652173913,459.8333333333333C433.6231884057972,459.6666666666667,438.5507246376812,459.3333333333333,443.47826086956525,459.3333333333333C448.4057971014493,459.3333333333333,453.3333333333333,459.6666666666667,458.26086956521743,459.8333333333333C463.18840579710144,460,468.1159420289855,460,473.0434782608695,460C477.97101449275357,460,482.8985507246377,460,487.82608695652175,460C492.75362318840575,460,497.6811594202898,460,502.6086956521738,460C507.536231884058,460,512.463768115942,460,517.3913043478261,460C522.3188405797101,460,527.2463768115941,460,532.1739130434783,460C537.1014492753624,460,542.0289855072464,460,546.9565217391304,460C551.8840579710145,460,556.8115942028986,460,561.7391304347826,460C566.6666666666666,460,571.5942028985506,460,576.5217391304348,460C581.4492753623189,460,586.3768115942029,460,591.304347826087,460C596.231884057971,460,601.1594202898551,460,606.0869565217391,460C611.0144927536231,460,615.9420289855071,460,620.8695652173913,460C625.7971014492754,460,630.7246376811594,460,635.6521739130434,460C640.5797101449275,460,645.5072463768116,460,650.4347826086956,460C655.3623188405796,460,660.2898550724639,460,665.2173913043479,460C670.1449275362319,460,675.072463768116,460,677.536231884058,460L680,460L680,460L677.536231884058,460C675.072463768116,460,670.1449275362319,460,665.2173913043479,460C660.2898550724639,460,655.3623188405796,460,650.4347826086956,460C645.5072463768116,460,640.5797101449275,460,635.6521739130435,460C630.7246376811594,460,625.7971014492754,460,620.8695652173913,460C615.9420289855071,460,611.0144927536231,460,606.0869565217391,460C601.1594202898551,460,596.231884057971,460,591.304347826087,460C586.3768115942029,460,581.4492753623189,460,576.5217391304348,460C571.5942028985506,460,566.6666666666666,460,561.7391304347826,460C556.8115942028986,460,551.8840579710145,460,546.9565217391305,460C542.0289855072464,460,537.1014492753624,460,532.1739130434783,460C527.2463768115941,460,522.3188405797101,460,517.3913043478261,460C512.463768115942,460,507.536231884058,460,502.6086956521738,460C497.6811594202898,460,492.75362318840575,460,487.8260869565217,460C482.8985507246377,460,477.97101449275357,460,473.04347826086956,460C468.1159420289855,460,463.18840579710144,460,458.2608695652173,459.8333333333333C453.3333333333333,459.6666666666667,448.4057971014493,459.3333333333333,443.47826086956525,459.3333333333333C438.5507246376812,459.3333333333333,433.6231884057972,459.6666666666667,428.69565217391306,459.8333333333333C423.768115942029,460,418.84057971014494,460,413.9130434782608,460C408.9855072463768,460,404.0579710144928,460,399.13043478260875,460C394.2028985507247,460,389.27536231884056,460,384.3478260869565,460C379.42028985507244,460,374.4927536231883,460,369.5652173913043,460C364.63768115942025,460,359.71014492753625,460,354.7826086956522,460C349.8550724637682,460,344.92753623188406,460,340,460C335.07246376811594,460,330.1449275362319,460,325.2173913043478,460C320.28985507246375,460,315.3623188405797,460,310.4347826086956,460C305.50724637681157,460,300.57971014492756,460,295.65217391304344,460C290.72463768115944,460,285.7971014492754,460,280.8695652173913,460C275.94202898550725,460,271.0144927536232,460,266.0869565217391,460C261.15942028985506,460,256.231884057971,460,251.30434782608697,460C246.37681159420288,460,241.44927536231884,460,236.52173913043475,459.8333333333333C231.59420289855075,459.6666666666667,226.66666666666666,459.3333333333333,221.73913043478262,459.3333333333333C216.8115942028986,459.3333333333333,211.8840579710145,459.6666666666667,206.95652173913047,459.8333333333333C202.02898550724638,460,197.10144927536234,460,192.17391304347825,460C187.24637681159422,460,182.31884057971016,460,177.3913043478261,460C172.46376811594203,460,167.53623188405797,460,162.6086956521739,460C157.68115942028984,460,152.75362318840578,460,147.82608695652175,459.8333333333333C142.8985507246377,459.6666666666667,137.97101449275362,459.3333333333333,133.04347826086956,459.3333333333333C128.1159420289855,459.3333333333333,123.18840579710145,459.6666666666667,118.26086956521739,459.8333333333333C113.33333333333333,460,108.40579710144927,460,103.4782608695652,460C98.55072463768117,460,93.62318840579711,460,88.69565217391305,460C83.76811594202898,460,78.84057971014494,460,73.91304347826087,460C68.98550724637681,460,64.05797101449275,460,59.13043478260869,460C54.20289855072463,460,49.275362318840585,460,44.34782608695652,460C39.42028985507246,460,34.492753623188406,460,29.565217391304348,460C24.637681159420293,460,19.71014492753623,460,14.782608695652174,460C9.855072463768115,460,4.927536231884058,460,2.463768115942029,460L0,460Z"
             id="path5">
            <title
               id="title5">Streaming</title>
          </path>
          <path
             fill="#8c564b"
             d="M0,317.274L2.463768115942029,318.1288333333333C4.927536231884058,318.9836666666667,9.855072463768115,320.6933333333333,14.782608695652174,323.8711666666666C19.71014492753623,327.049,24.637681159420293,331.69499999999994,29.565217391304348,331.78316666666666C34.492753623188406,331.87133333333327,39.42028985507246,327.40166666666664,44.34782608695652,321.0805C49.275362318840585,314.7593333333333,54.20289855072463,306.58666666666664,59.130434782608695,301.42699999999996C64.05797101449275,296.2673333333333,68.98550724637681,294.12066666666664,73.91304347826087,294.711C78.84057971014494,295.30133333333333,83.76811594202898,298.6286666666667,88.69565217391305,301.588C93.62318840579711,304.54733333333337,98.55072463768117,307.13866666666667,103.47826086956523,309.39650000000006C108.40579710144927,311.65433333333334,113.33333333333333,313.5786666666667,118.26086956521738,316.13366666666667C123.18840579710145,318.68866666666673,128.1159420289855,321.87433333333337,133.04347826086956,323.69716666666676C137.97101449275362,325.52000000000004,142.8985507246377,325.98,147.82608695652172,322.30383333333333C152.75362318840578,318.6276666666667,157.68115942028984,310.8153333333333,162.6086956521739,321.01383333333337C167.53623188405797,331.21233333333333,172.46376811594203,359.4216666666666,177.3913043478261,374.99066666666664C182.31884057971016,390.5596666666666,187.24637681159422,393.4883333333333,192.17391304347825,394.22433333333333C197.10144927536234,394.96033333333327,202.02898550724638,393.5036666666667,206.9565217391304,398.64416666666665C211.8840579710145,403.7846666666667,216.8115942028986,415.52233333333334,221.73913043478262,423.718C226.66666666666666,431.91366666666664,231.59420289855075,436.56733333333335,236.52173913043478,439.9981666666666C241.44927536231884,443.4289999999999,246.37681159420288,445.637,251.3043478260869,447.339C256.231884057971,449.041,261.15942028985506,450.237,266.0869565217391,450.9576666666667C271.0144927536232,451.6783333333333,275.94202898550725,451.92366666666663,280.8695652173913,452.1383333333333C285.7971014492754,452.353,290.72463768115944,452.537,295.6521739130435,452.72483333333327C300.57971014492756,452.91266666666667,305.50724637681157,453.1043333333334,310.4347826086956,453.8421666666666C315.3623188405797,454.58,320.28985507246375,455.864,325.2173913043478,456.483C330.1449275362319,457.10200000000003,335.07246376811594,457.05600000000004,340,457.14033333333333C344.92753623188406,457.2246666666667,349.8550724637682,457.4393333333333,354.7826086956522,457.60033333333337C359.71014492753625,457.76133333333337,364.63768115942025,457.8686666666667,369.5652173913043,457.94533333333334C374.4927536231883,458.022,379.42028985507244,458.068,384.3478260869565,458.13699999999994C389.27536231884056,458.20599999999996,394.2028985507247,458.298,399.13043478260875,458.31333333333333C404.0579710144928,458.3286666666667,408.9855072463768,458.2673333333334,413.9130434782608,458.300185C418.84057971014494,458.33303666666666,423.768115942029,458.46007333333336,428.695652173913,458.38924C433.6231884057972,458.3184066666667,438.5507246376812,458.04970333333335,443.47826086956525,458.0973516666667C448.4057971014493,458.145,453.3333333333333,458.509,458.26086956521743,458.48983333333337C463.18840579710144,458.47066666666666,468.1159420289855,458.0683333333333,473.0434782608695,457.97066666666666C477.97101449275357,457.873,482.8985507246377,458.08,487.82608695652175,458.21416666666664C492.75362318840575,458.3483333333333,497.6811594202898,458.4096666666666,502.6086956521738,458.3981666666666C507.536231884058,458.3866666666666,512.463768115942,458.3023333333333,517.3913043478261,458.4115C522.3188405797101,458.5206666666666,527.2463768115941,458.8233333333333,532.1739130434783,458.94783333333334C537.1014492753624,459.07233333333335,542.0289855072464,459.01866666666666,546.9565217391304,458.93816666666663C551.8840579710145,458.8576666666667,556.8115942028986,458.75033333333334,561.7391304347826,458.64284900975326C566.6666666666666,458.5353646861733,571.5942028985506,458.4277293723467,576.5217391304348,457.7885687435067C581.4492753623189,457.14940811466664,586.3768115942029,455.97872217081334,591.304347826087,455.45874625608167C596.231884057971,454.93877034134994,601.1594202898551,455.06950445573995,606.0869565217391,455.01283380449826C611.0144927536231,454.9561631532567,615.9420289855071,454.71208773638335,620.8695652173913,454.5976732136883C625.7971014492754,454.48325869099335,630.7246376811594,454.4985050624766,635.6521739130434,454.5170740124267C640.5797101449275,454.53564296237664,645.5072463768116,454.55753449079333,650.4347826086956,454.5538321968933C655.3623188405796,454.5501299029934,660.2898550724639,454.5208337867766,665.2173913043479,454.4261494977167C670.1449275362319,454.33146520865665,675.072463768116,454.1713927467533,677.536231884058,454.0913565158017L680,454.01132028485L680,458.48235544799L677.536231884058,458.46951035781166C675.072463768116,458.45666526763335,670.1449275362319,458.4309750872767,665.2173913043479,458.39225037632167C660.2898550724639,458.3535256653666,655.3623188405796,458.3017664238134,650.4347826086956,458.2348941510916C645.5072463768116,458.16802187837,640.5797101449275,458.08603657448,635.6521739130435,457.999611916505C630.7246376811594,457.91318725852994,625.7971014492754,457.82232324647,620.8695652173913,457.7688970136C615.9420289855071,457.71547078072996,611.0144927536231,457.69948232704996,606.0869565217391,457.5828174378949C601.1594202898551,457.46615254873996,596.231884057971,457.24881122410994,591.304347826087,457.6348955785483C586.3768115942029,458.0209799329866,581.4492753623189,459.01048996649325,576.5217391304348,459.50524498324666C571.5942028985506,460,566.6666666666666,460,561.7391304347826,460C556.8115942028986,460,551.8840579710145,460,546.9565217391305,460C542.0289855072464,460,537.1014492753624,460,532.1739130434783,459.8295C527.2463768115941,459.65899999999993,522.3188405797101,459.318,517.3913043478261,459.13599999999997C512.463768115942,458.954,507.536231884058,458.93100000000004,502.6086956521738,458.90799999999996C497.6811594202898,458.885,492.75362318840575,458.862,487.8260869565217,458.78150000000005C482.8985507246377,458.701,477.97101449275357,458.56300000000005,473.04347826086956,458.7565C468.1159420289855,458.95,463.18840579710144,459.47499999999997,458.2608695652173,459.5708333333334C453.3333333333333,459.6666666666667,448.4057971014493,459.3333333333333,443.47826086956525,459.3333333333333C438.5507246376812,459.3333333333333,433.6231884057972,459.6666666666667,428.69565217391306,459.8333333333333C423.768115942029,460,418.84057971014494,460,413.9130434782608,460C408.9855072463768,460,404.0579710144928,460,399.13043478260875,460C394.2028985507247,460,389.27536231884056,460,384.3478260869565,460C379.42028985507244,460,374.4927536231883,460,369.5652173913043,460C364.63768115942025,460,359.71014492753625,460,354.7826086956522,460C349.8550724637682,460,344.92753623188406,460,340,460C335.07246376811594,460,330.1449275362319,460,325.2173913043478,459.404C320.28985507246375,458.808,315.3623188405797,457.616,310.4347826086956,457.0276666666667C305.50724637681157,456.4393333333333,300.57971014492756,456.4546666666667,295.65217391304344,456.5926666666667C290.72463768115944,456.73066666666665,285.7971014492754,456.9913333333334,280.8695652173913,457.1791666666666C275.94202898550725,457.367,271.0144927536232,457.48199999999997,266.0869565217391,457.42066666666665C261.15942028985506,457.3593333333333,256.231884057971,457.1216666666666,251.30434782608697,457.1216666666666C246.37681159420288,457.1216666666666,241.44927536231884,457.3593333333333,236.52173913043475,457.712C231.59420289855075,458.06466666666665,226.66666666666666,458.5323333333333,221.73913043478262,454.85233333333326C216.8115942028986,451.17233333333337,211.8840579710145,443.3446666666667,206.95652173913047,441.31300000000005C202.02898550724638,439.28133333333335,197.10144927536234,443.04566666666665,192.17391304347825,446.0931666666667C187.24637681159422,449.1406666666667,182.31884057971016,451.47133333333335,177.3913043478261,440.38733333333334C172.46376811594203,429.30333333333334,167.53623188405797,404.80466666666666,162.6086956521739,396.3963333333333C157.68115942028984,387.988,152.75362318840578,395.67,147.82608695652175,401.07116666666667C142.8985507246377,406.4723333333333,137.97101449275362,409.5926666666667,133.04347826086956,412.19733333333335C128.1159420289855,414.80199999999996,123.18840579710145,416.891,118.26086956521739,417.55216666666666C113.33333333333333,418.21333333333337,108.40579710144927,417.4466666666667,103.4782608695652,417.186C98.55072463768117,416.92533333333336,93.62318840579711,417.17066666666665,88.69565217391305,416.7528333333333C83.76811594202898,416.33500000000004,78.84057971014494,415.25399999999996,73.91304347826087,415.89033333333333C68.98550724637681,416.52666666666664,64.05797101449275,418.88033333333334,59.13043478260869,421.4218333333334C54.20289855072463,423.96333333333337,49.275362318840585,426.69266666666664,44.34782608695652,428.68216666666666C39.42028985507246,430.6716666666666,34.492753623188406,431.9213333333333,29.565217391304348,432.48483333333326C24.637681159420293,433.04833333333335,19.71014492753623,432.9256666666667,14.782608695652174,433.0828333333333C9.855072463768115,433.24,4.927536231884058,433.67699999999996,2.463768115942029,433.8955L0,434.114Z"
             id="path6">
            <title
               id="title6">Vinyl</title>
          </path>
        </g>
        <g
           id="xAxis"
           transform="translate(0,460)"
           fill="none"
           font-size="10"
           font-family="sans-serif"
           text-anchor="middle">
          <path
             class="domain"
             stroke="currentColor"
             d="M0.5,0.5H680.5"
             id="path7" />
          <g
             class="tick"
             opacity="1"
             transform="translate(30.065217391304348,0)"
             id="g7">
            <line
               stroke="currentColor"
               y2="6"
               id="line7" />
            <text
               fill="currentColor"
               y="9"
               dy="0.71em"
               id="text7"
               style="-inkscape-font-specification:'sans-serif, Normal';font-family:sans-serif;font-weight:normal;font-style:normal;font-stretch:normal;font-variant:normal;font-size:10px;font-variant-ligatures:normal;font-variant-caps:normal;font-variant-numeric:normal;font-variant-east-asian:normal;fill:currentColor"><tspan
                 sodipodi:role="line"
                 id="tspan23">1975</tspan></text>
          </g>
          <g
             class="tick"
             opacity="1"
             transform="translate(103.97826086956522,0)"
             id="g8">
            <line
               stroke="currentColor"
               y2="6"
               id="line8" />
            <text
               fill="currentColor"
               y="9"
               dy="0.71em"
               id="text8"
               style="-inkscape-font-specification:'sans-serif, Normal';font-family:sans-serif;font-weight:normal;font-style:normal;font-stretch:normal;font-variant:normal;font-size:10px;font-variant-ligatures:normal;font-variant-caps:normal;font-variant-numeric:normal;font-variant-east-asian:normal;fill:currentColor"><tspan
                 sodipodi:role="line"
                 id="tspan24">1980</tspan></text>
          </g>
          <g
             class="tick"
             opacity="1"
             transform="translate(177.8913043478261,0)"
             id="g9">
            <line
               stroke="currentColor"
               y2="6"
               id="line9" />
            <text
               fill="currentColor"
               y="9"
               dy="0.71em"
               id="text9"
               style="-inkscape-font-specification:'sans-serif, Normal';font-family:sans-serif;font-weight:normal;font-style:normal;font-stretch:normal;font-variant:normal;font-size:10px;font-variant-ligatures:normal;font-variant-caps:normal;font-variant-numeric:normal;font-variant-east-asian:normal;fill:currentColor"><tspan
                 sodipodi:role="line"
                 id="tspan25">1985</tspan></text>
          </g>
          <g
             class="tick"
             opacity="1"
             transform="translate(251.80434782608694,0)"
             id="g10">
            <line
               stroke="currentColor"
               y2="6"
               id="line10" />
            <text
               fill="currentColor"
               y="9"
               dy="0.71em"
               id="text10"
               style="-inkscape-font-specification:'sans-serif, Normal';font-family:sans-serif;font-weight:normal;font-style:normal;font-stretch:normal;font-variant:normal;font-size:10px;font-variant-ligatures:normal;font-variant-caps:normal;font-variant-numeric:normal;font-variant-east-asian:normal;fill:currentColor"><tspan
                 sodipodi:role="line"
                 id="tspan26">1990</tspan></text>
          </g>
          <g
             class="tick"
             opacity="1"
             transform="translate(325.7173913043478,0)"
             id="g11">
            <line
               stroke="currentColor"
               y2="6"
               id="line11" />
            <text
               fill="currentColor"
               y="9"
               dy="0.71em"
               id="text11"
               style="-inkscape-font-specification:'sans-serif, Normal';font-family:sans-serif;font-weight:normal;font-style:normal;font-stretch:normal;font-variant:normal;font-size:10px;font-variant-ligatures:normal;font-variant-caps:normal;font-variant-numeric:normal;font-variant-east-asian:normal;fill:currentColor"><tspan
                 sodipodi:role="line"
                 id="tspan27">1995</tspan></text>
          </g>
          <g
             class="tick"
             opacity="1"
             transform="translate(399.63043478260875,0)"
             id="g12">
            <line
               stroke="currentColor"
               y2="6"
               id="line12" />
            <text
               fill="currentColor"
               y="9"
               dy="0.71em"
               id="text12"
               style="-inkscape-font-specification:'sans-serif, Normal';font-family:sans-serif;font-weight:normal;font-style:normal;font-stretch:normal;font-variant:normal;font-size:10px;font-variant-ligatures:normal;font-variant-caps:normal;font-variant-numeric:normal;font-variant-east-asian:normal;fill:currentColor"><tspan
                 sodipodi:role="line"
                 id="tspan28">2000</tspan></text>
          </g>
          <g
             class="tick"
             opacity="1"
             transform="translate(473.54347826086956,0)"
             id="g13">
            <line
               stroke="currentColor"
               y2="6"
               id="line13" />
            <text
               fill="currentColor"
               y="9"
               dy="0.71em"
               id="text13"
               style="-inkscape-font-specification:'sans-serif, Normal';font-family:sans-serif;font-weight:normal;font-style:normal;font-stretch:normal;font-variant:normal;font-size:10px;font-variant-ligatures:normal;font-variant-caps:normal;font-variant-numeric:normal;font-variant-east-asian:normal;fill:currentColor"><tspan
                 sodipodi:role="line"
                 id="tspan29">2005</tspan></text>
          </g>
          <g
             class="tick"
             opacity="1"
             transform="translate(547.4565217391305,0)"
             id="g14">
            <line
               stroke="currentColor"
               y2="6"
               id="line14" />
            <text
               fill="currentColor"
               y="9"
               dy="0.71em"
               id="text14"
               style="-inkscape-font-specification:'sans-serif, Normal';font-family:sans-serif;font-weight:normal;font-style:normal;font-stretch:normal;font-variant:normal;font-size:10px;font-variant-ligatures:normal;font-variant-caps:normal;font-variant-numeric:normal;font-variant-east-asian:normal;fill:currentColor"><tspan
                 sodipodi:role="line"
                 id="tspan30">2010</tspan></text>
          </g>
          <g
             class="tick"
             opacity="1"
             transform="translate(621.3695652173913,0)"
             id="g15">
            <line
               stroke="currentColor"
               y2="6"
               id="line15" />
            <text
               fill="currentColor"
               y="9"
               dy="0.71em"
               id="text15"
               style="-inkscape-font-specification:'sans-serif, Normal';font-family:sans-serif;font-weight:normal;font-style:normal;font-stretch:normal;font-variant:normal;font-size:10px;font-variant-ligatures:normal;font-variant-caps:normal;font-variant-numeric:normal;font-variant-east-asian:normal;fill:currentColor"><tspan
                 sodipodi:role="line"
                 id="tspan31">2015</tspan></text>
          </g>
        </g>
        <text
           y="456"
           x="680"
           text-anchor="end"
           style="font-family: Arial, sans-serif; font-size: 12px; fill: rgb(123, 123, 123); font-weight: bold;"
           id="text16">Year</text>
        <text
           x="4"
           text-anchor="start"
           dominant-baseline="hanging"
           style="font-family: Arial, sans-serif; font-size: 12px; fill: rgb(123, 123, 123); font-weight: bold;"
           id="text17">Units</text>
        <g
           id="labels">
          <text
             x="318.26251"
             y="254.26601"
             text-anchor="middle"
             alignment-baseline="middle"
             style="font-weight:bold;font-size:33.8955px;font-family:Arial, sans-serif;fill:#000000;stroke-width:3.38955"
             id="text18"
             transform="scale(0.73805269,1.3549168)">Tape</text>
          <text
             x="520.77307"
             y="252.05362"
             text-anchor="middle"
             alignment-baseline="middle"
             style="font-weight:bold;font-size:58.9775px;font-family:Arial, sans-serif;fill:#000000;stroke-width:5.89775"
             id="text19"
             transform="scale(0.72769014,1.3742113)">Disc</text>
          <text
             x="1088.6405"
             y="142.65439"
             text-anchor="middle"
             alignment-baseline="middle"
             style="font-weight:bold;font-size:57.9389px;font-family:Arial, sans-serif;fill:#000000;stroke-width:5.79388"
             id="text20"
             transform="scale(0.50895619,1.9648057)">Download</text>
          <text
             x="83.507187"
             y="304.82135"
             text-anchor="middle"
             alignment-baseline="middle"
             style="font-weight:bold;font-size:44.3498px;font-family:Arial, sans-serif;fill:#000000;stroke-width:4.43498"
             id="text22"
             transform="scale(0.78990152,1.2659806)">Vinyl</text>
        </g>
      </g>
      <text
         x="4"
         y="4"
         style="font-family: Arial, sans-serif; font-size: 12px; fill: black; font-weight: bold; dominant-baseline: hanging;"
         id="text23" />
    </g>
  </g>
</svg>
